<?xml version="1.0" encoding="UTF-8"?><svg id="b" xmlns="http://www.w3.org/2000/svg" viewBox="0 0 700.09 890.66"><defs><style>.d{fill:#6dc06b;}</style></defs><g id="c"><path class="d" d="M140.53,351.04c-2.31,0-4.6-.01-6.88-.03-69.59-.69-111-12.47-126.61-36-11.79-17.78-8.76-42.8,8.99-74.39,43.1-76.69,75.8-127.16,106.03-163.65C157.51,34.19,191.1,9.57,224.75,1.7c26.01-6.33,56.61,5.06,90.94,33.86,29.29,24.56,53.84,55.7,65.86,72.08,41.3,56.26,92.71,126.28,71.44,174.87-5.96,13.61-17.54,24.87-34.44,33.48-18.39,9.37-43.71,15.92-75.25,19.48-72.91,8.22-143.3,15.58-202.77,15.58ZM239.14,1c-4.86,0-9.58.56-14.16,1.67-33.43,7.82-66.84,32.33-102.15,74.94-30.19,36.44-62.86,86.86-105.93,163.5-17.55,31.23-20.59,55.91-9.02,73.35,15.41,23.24,56.55,34.86,125.78,35.55,60.83.6,133.82-7.01,209.53-15.54,31.42-3.54,56.63-10.06,74.91-19.38,16.68-8.5,28.11-19.6,33.98-32.99,9.29-21.21,5.26-48.57-12.3-83.64-15.5-30.95-39.63-63.82-59.03-90.23-12-16.34-36.48-47.41-65.7-71.91C287.04,12.83,261.58,1,239.14,1Z"/><path class="d" d="M533.7,890.66c-14.34,0-29.05-.16-43.93-.36-39.03-.52-62.86-9.23-72.85-26.63-16.62-28.95,9.61-75.31,30.69-112.56,6.17-10.9,18.95-31.74,35.21-48.78,19.09-20.01,37.25-28.98,54-26.65,45.77,5.97,90.95,56.22,149.01,135.37,13.69,18.67,17.54,34.14,11.44,45.99-7.99,15.52-32.89,25.33-76.12,30.02-25.99,2.82-55.84,3.59-87.45,3.59ZM448.05,751.37l.44.25c-20.96,37.03-47.03,83.11-30.69,111.57,9.67,16.83,33.89,25.62,72,26.13,47.64.64,93.53.86,131.25-3.22,42.87-4.65,67.52-14.29,75.34-29.48,5.92-11.48,2.09-26.61-11.36-44.94-57.9-78.94-102.91-129.05-148.34-134.98-39.44-5.49-77.47,55.97-88.21,74.93l-.44-.25Z"/><path class="d" d="M223.54,611.83c-9.51,0-17.69-2.21-24.48-6.62-38.92-24.82-58.52-89.5-77.51-185.8-4.48-22.72-1.4-38.36,9.15-46.5,13.82-10.66,40.53-8.99,81.67,5.11,35.95,12.32,77.44,32.01,120.34,52.8,35.12,17.03,53.01,35.02,54.68,55.02,2.77,33.27-40.65,64.12-75.54,88.91-10.21,7.26-30.62,20.7-52.58,29.24-13.43,5.23-25.37,7.84-35.73,7.84ZM155.92,366.99c-10.65,0-18.81,2.24-24.61,6.71-10.23,7.89-13.18,23.21-8.78,45.52,18.95,96.05,38.45,160.52,77.07,185.15,13.89,9.03,33.84,8.59,59.3-1.31,21.86-8.5,42.19-21.9,52.36-29.13l.29.41-.29-.41c34.68-24.64,77.85-55.31,75.12-88.01-1.61-19.34-19.82-37.58-54.12-54.2-42.87-20.78-84.33-40.46-120.23-52.76-23.31-7.99-41.93-11.97-56.13-11.97Z"/></g></svg>