<?xml version="1.0" encoding="UTF-8"?><svg id="b" xmlns="http://www.w3.org/2000/svg" viewBox="0 0 434.61 642.74"><defs><style>.d{fill:#6dc06b;}.e{fill:#f5833e;}</style></defs><g id="c"><path class="d" d="M299.66,642.74c-5.22,0-9.55-1.44-12.96-4.31-21.2-17.86-4.23-87.86,9.41-144.11,6.33-26.1,15.83-40.76,29.06-44.8,22-6.73,49.06,17.95,70.79,37.78,14.29,13.04,46.5,46.1,36.89,71.41-11.01,29.78-51.58,52.35-113.46,79.13-7.56,3.27-14.16,4.91-19.73,4.91ZM332.93,449.39c-2.55,0-5.04.35-7.47,1.09-12.68,3.88-22.23,18.71-28.38,44.08-16.05,66.22-28.88,126.99-9.74,143.11,6.73,5.67,17.38,5.42,31.65-.76,61.64-26.67,102.04-49.11,112.92-78.56,4.02-10.58.83-23.86-9.49-39.45-8.87-13.41-20.81-25.09-27.13-30.86-19.11-17.43-42.37-38.65-62.35-38.65Z"/><path class="d" d="M327.34,451.27c-11.14,0-23.95-2.22-38.4-6.66-85.54-26.31-142.78-47.95-185.57-70.14-50.18-26.02-81.9-54.11-96.98-85.86-11.9-24.49-7.17-57.37,14.05-97.71,18.11-34.42,43.77-65.54,57.46-81.02,22.1-25,49.61-56.12,77.11-78.26C186.35,6.38,212.95-3.59,236.36,1.14c14.81,2.99,28.51,12.08,40.71,27.02,13.28,16.26,25.26,40.02,35.59,70.62,24.82,73.47,48.14,144.43,60.66,205.1,14.32,69.34,11.54,113.05-8.49,133.64-8.92,9.17-21.47,13.77-37.49,13.77ZM78.28,110.2l.38.33c-13.66,15.45-39.27,46.5-57.33,80.82C.26,231.41-4.46,263.98,7.29,288.17c14.98,31.56,46.56,59.49,96.54,85.41,42.74,22.16,99.92,43.77,185.4,70.07,34.84,10.72,60.03,8.41,74.88-6.84,19.78-20.33,22.47-63.75,8.23-132.74-12.52-60.61-35.82-131.54-60.63-204.98-10.3-30.48-22.22-54.13-35.42-70.3-12.05-14.76-25.55-23.73-40.13-26.67-23.1-4.66-49.43,5.24-80.52,30.27-27.43,22.09-54.91,53.17-76.99,78.14l-.38-.33Z"/><path class="e" d="M163.58,513.07c-34.51,0-61.36-6.35-81.59-19.22-19.72-12.3-31.23-38.21-34.21-77-2.54-33.08,1.88-67.2,4.74-84.6,9.83-59.77,22.07-134.16,65.15-150.46,25.47-9.64,58.01,2.1,99.47,35.91,51.25,41.79,100.29,82.47,136.86,120.6,41.81,43.6,59.64,76.44,54.51,100.43-3.88,18.12-21.25,31.45-51.64,39.61-73.72,19.81-124.87,30.15-165.84,33.54-9.64.8-18.79,1.2-27.45,1.2ZM53.51,332.41c-2.85,17.35-7.26,51.39-4.73,84.36,2.95,38.46,14.31,64.1,33.75,76.23,25.12,15.98,60.58,21.83,108.42,17.87,40.91-3.38,92.01-13.72,165.67-33.5,29.99-8.06,47.12-21.13,50.92-38.86,5.06-23.63-12.69-56.19-54.25-99.52-36.53-38.09-85.54-78.74-136.77-120.52-40.58-33.09-73.72-45.12-98.48-35.75-42.54,16.1-54.72,90.17-64.52,149.69h0Z"/></g></svg>