<?xml version="1.0" encoding="UTF-8"?><svg id="b" xmlns="http://www.w3.org/2000/svg" viewBox="0 0 288.42 215.34"><defs><style>.d{fill:#6dc06b;}</style></defs><g id="c"><path class="d" d="M122.04,215.34c-14.34,0-29.05-.16-43.93-.36-39.03-.52-62.86-9.23-72.85-26.63-16.62-28.95,9.61-75.31,30.69-112.56,6.17-10.9,18.95-31.74,35.21-48.78C90.25,6.99,108.41-1.97,125.16.36c45.77,5.97,90.95,56.22,149.01,135.37,13.69,18.67,17.54,34.14,11.44,45.99-7.99,15.52-32.89,25.33-76.12,30.02-25.99,2.82-55.84,3.59-87.45,3.59ZM36.38,76.04l.44.25C15.87,113.31-10.21,159.4,6.13,187.85c9.67,16.83,33.89,25.62,72,26.13,47.64.64,93.53.86,131.25-3.22,42.87-4.65,67.52-14.29,75.34-29.48,5.92-11.48,2.09-26.61-11.36-44.94C215.46,57.39,170.45,7.27,125.03,1.35,85.59-4.14,47.55,57.32,36.82,76.28l-.44-.25Z"/></g></svg>