<?xml version="1.0" encoding="UTF-8"?><svg id="b" xmlns="http://www.w3.org/2000/svg" viewBox="0 0 384.31 134.5"><defs><style>.d{fill:#fff;}.e{fill:#f5833e;}</style></defs><g id="c"><path class="e" d="M26.98,83.62c-.53,0-.96-.2-1.3-.59-.34-.39-.46-.88-.36-1.46l1.66-7.82H1.62c-.58,0-1.01-.2-1.3-.59-.29-.39-.38-.88-.28-1.46l1.97-9.4c.16-.63.36-1.13.59-1.5.24-.37.49-.66.75-.87l29.14-30.25c.9-.89,1.95-1.34,3.16-1.34h15.24c.58,0,1.03.2,1.34.59.32.4.42.88.32,1.46l-6.32,29.46h6.95c.63,0,1.11.2,1.42.59.32.39.42.88.32,1.46l-2.13,9.79c-.11.58-.41,1.07-.91,1.46-.5.4-1.04.59-1.62.59h-6.95l-1.66,7.82c-.11.58-.39,1.07-.87,1.46-.47.4-1,.59-1.58.59h-12.24ZM19.63,60.55h10.66l3.16-14.85-13.82,14.85Z"/><path class="e" d="M66.7,83.62c-.47,0-.84-.17-1.11-.51-.26-.34-.34-.75-.24-1.22.05-.26.14-.47.28-.63.13-.16.25-.29.36-.39l13.82-14.53c-.53.11-1.03.13-1.5.08-2.16-.16-4.27-.68-6.32-1.58-2.05-.9-3.84-2.12-5.37-3.67-1.53-1.55-2.63-3.46-3.32-5.73-.68-2.26-.71-4.84-.08-7.74.58-2.58,1.62-5.08,3.12-7.5s3.45-4.58,5.84-6.48c2.4-1.9,5.2-3.4,8.41-4.5,3.21-1.11,6.77-1.66,10.66-1.66s7.33.49,10.15,1.46c2.82.98,5.07,2.34,6.75,4.11,1.68,1.76,2.82,3.83,3.4,6.2.58,2.37.58,4.95,0,7.74-.53,2.48-1.5,4.81-2.92,6.99-1.42,2.19-3.07,4.28-4.94,6.28s-3.75,4.03-5.65,6.08l-14.85,15.64c-.26.26-.66.59-1.18.99-.53.4-1.24.59-2.13.59h-13.19ZM85.82,54.31c1.32,0,2.53-.26,3.63-.79,1.11-.53,2.05-1.29,2.84-2.29.79-1,1.34-2.18,1.66-3.55.32-1.42.29-2.63-.08-3.63-.37-1-1.01-1.76-1.94-2.29-.92-.53-2.01-.79-3.28-.79s-2.46.26-3.59.79c-1.13.53-2.09,1.29-2.88,2.29s-1.34,2.21-1.66,3.63c-.26,1.37-.22,2.55.12,3.55.34,1,.96,1.76,1.86,2.29.9.53,2,.79,3.32.79Z"/><path class="e" d="M140.87,84.41c-2.42,0-4.59-.37-6.52-1.11-1.92-.74-3.5-1.87-4.74-3.4-1.24-1.53-2.07-3.45-2.49-5.77-.42-2.32-.37-5.03.16-8.13.21-1.16.41-2.16.59-3,.18-.84.41-1.82.67-2.92.74-2.95,1.74-5.57,3-7.86,1.26-2.29,2.76-4.2,4.5-5.73,1.74-1.53,3.7-2.7,5.88-3.51,2.18-.82,4.57-1.22,7.15-1.22,3.11,0,5.49.41,7.15,1.22,1.66.82,2.96,1.86,3.91,3.12l.39-1.5c.11-.58.4-1.07.87-1.46.47-.4.97-.59,1.5-.59h11.14c.58,0,1.03.2,1.34.59.32.39.42.88.32,1.46l-7.82,36.96c-.11.58-.39,1.07-.87,1.46-.47.4-1,.59-1.58.59h-11.14c-.58,0-1.04-.2-1.38-.59-.34-.39-.46-.88-.36-1.46l.47-2.21c-1.58,1.53-3.29,2.75-5.13,3.67-1.84.92-4.19,1.38-7.03,1.38ZM147.98,72.08c1.37,0,2.51-.29,3.44-.87.92-.58,1.67-1.34,2.25-2.29.58-.95,1.03-2,1.34-3.16.32-1.16.57-2.17.75-3.04.18-.87.36-1.83.51-2.88.21-1.11.21-2.08,0-2.92-.21-.84-.66-1.53-1.34-2.05-.68-.53-1.66-.79-2.92-.79s-2.42.28-3.32.83c-.9.55-1.62,1.32-2.17,2.29-.55.97-1.01,2.09-1.38,3.36-.21.79-.42,1.63-.63,2.53-.21.9-.37,1.74-.47,2.53-.16,1.26-.19,2.38-.08,3.36.1.97.47,1.74,1.11,2.29s1.61.83,2.92.83Z"/><path class="e" d="M214.64,84.56c-5.05,0-9.29-.8-12.72-2.41-3.42-1.61-5.91-3.7-7.46-6.28-1.55-2.58-2.07-5.4-1.54-8.45.11-.47.36-.88.75-1.22.39-.34.83-.51,1.3-.51h13.19c.79,0,1.38.16,1.78.47.39.32.62.63.67.95.26.9.62,1.65,1.07,2.25.45.61,1.03,1.05,1.74,1.34.71.29,1.59.43,2.65.43,1.16,0,2.3-.25,3.44-.75,1.13-.5,2.11-1.24,2.92-2.21.82-.97,1.38-2.17,1.7-3.59.37-1.79.12-3.29-.75-4.5-.87-1.21-2.3-1.82-4.3-1.82-1.05,0-1.93.12-2.65.36-.71.24-1.33.51-1.86.83-.53.32-1,.59-1.42.83-.42.24-.84.36-1.26.36h-13.03c-.53,0-.91-.21-1.15-.63-.24-.42-.28-.89-.12-1.42l8.92-27.72c.26-.84.71-1.47,1.34-1.9.63-.42,1.29-.63,1.97-.63h33.57c.53,0,.96.2,1.3.59.34.4.46.88.36,1.46l-1.97,9.32c-.16.53-.47,1-.95,1.42-.47.42-1,.63-1.58.63h-22.98l-2.53,7.9c1.47-.89,3.01-1.57,4.62-2.01,1.61-.45,3.72-.67,6.36-.67,2.47,0,4.78.47,6.91,1.42,2.13.95,3.94,2.26,5.41,3.95,1.47,1.69,2.5,3.67,3.08,5.96.58,2.29.58,4.78,0,7.46-.74,3.63-2.17,6.86-4.3,9.68-2.13,2.82-5.05,5.04-8.77,6.67-3.71,1.63-8.28,2.45-13.7,2.45Z"/><path class="e" d="M268.74,84.41c-5.32,0-9.7-.87-13.15-2.61-3.45-1.74-5.9-3.99-7.35-6.75-1.45-2.76-1.86-5.67-1.22-8.73.58-2.79,1.8-5.21,3.67-7.27,1.87-2.05,3.94-3.63,6.2-4.74-1.21-1.21-2.13-2.78-2.76-4.7s-.71-4.01-.24-6.28c.58-2.84,1.86-5.46,3.83-7.86,1.97-2.4,4.65-4.32,8.02-5.77,3.37-1.45,7.48-2.17,12.32-2.17s8.83.79,11.97,2.37c3.13,1.58,5.38,3.65,6.75,6.2,1.37,2.55,1.74,5.25,1.11,8.1-.47,2.26-1.29,4.21-2.45,5.84-1.16,1.63-2.76,3.05-4.82,4.27,2,1.42,3.41,3.29,4.23,5.61.82,2.32.93,4.82.36,7.5-.63,3.05-1.99,5.87-4.07,8.45-2.08,2.58-4.95,4.65-8.61,6.2-3.66,1.55-8.25,2.33-13.78,2.33ZM269.77,72.72c1.37,0,2.66-.24,3.87-.71,1.21-.47,2.24-1.17,3.08-2.09.84-.92,1.37-1.96,1.58-3.12.37-1.9,0-3.37-1.11-4.42-1.11-1.05-2.69-1.58-4.74-1.58-1.37,0-2.66.24-3.87.71-1.21.47-2.24,1.16-3.08,2.05-.84.9-1.37,1.97-1.58,3.24-.42,1.84-.07,3.29,1.07,4.34,1.13,1.05,2.72,1.58,4.78,1.58ZM274.66,49.89c1.26-.05,2.43-.3,3.51-.75,1.08-.45,1.99-1.07,2.72-1.86.74-.79,1.21-1.68,1.42-2.69.32-1.58.01-2.86-.91-3.83-.92-.97-2.38-1.46-4.38-1.46-1.32,0-2.51.22-3.59.67-1.08.45-1.97,1.07-2.69,1.86s-1.17,1.71-1.38,2.76c-.32,1.47-.03,2.72.87,3.75.9,1.03,2.37,1.54,4.42,1.54Z"/><path class="e" d="M316.64,83.62c-.38,0-.67-.13-.88-.39s-.27-.57-.21-.95l5.1-24.11c.07-.38.27-.7.59-.95.33-.26.68-.39,1.06-.39h7.06c.38,0,.66.13.85.39.19.26.25.58.18.95l-.36,1.7c.55-.55,1.18-1.1,1.88-1.65.7-.55,1.55-1,2.52-1.37s2.14-.54,3.48-.54c2.03,0,3.64.4,4.84,1.18,1.2.79,2.04,1.84,2.52,3.14,1.06-1.24,2.27-2.27,3.63-3.09,1.36-.82,2.94-1.24,4.76-1.24,1.92,0,3.54.4,4.87,1.21,1.32.81,2.26,2.04,2.81,3.71.55,1.67.53,3.84-.05,6.52l-3.09,14.53c-.07.38-.26.7-.57.95-.31.26-.65.39-1.03.39h-7.52c-.38,0-.67-.13-.88-.39s-.28-.57-.21-.95l3.04-14.22c.17-.89.2-1.6.08-2.14-.12-.53-.37-.93-.75-1.18s-.88-.39-1.49-.39c-.51,0-1.03.13-1.54.39-.51.26-.97.65-1.37,1.18-.39.53-.68,1.25-.85,2.14l-3.04,14.22c-.07.38-.26.7-.57.95-.31.26-.65.39-1.03.39h-7.52c-.38,0-.67-.13-.88-.39s-.28-.57-.21-.95l3.04-14.22c.17-.89.19-1.6.05-2.14-.14-.53-.4-.93-.77-1.18-.38-.26-.84-.39-1.39-.39s-1.09.14-1.62.41c-.53.28-1,.67-1.39,1.19-.4.51-.68,1.22-.85,2.11l-3.04,14.22c-.07.38-.26.7-.57.95-.31.26-.65.39-1.03.39h-7.67Z"/><path class="e" d="M367.32,65.59c-.34,0-.59-.1-.75-.31-.16-.21-.2-.48-.13-.82l.36-2.01c.07-.27.21-.54.44-.8s.63-.57,1.21-.95c2.16-1.37,3.93-2.49,5.31-3.35,1.37-.86,2.4-1.59,3.09-2.19.69-.6,1.08-1.21,1.18-1.83.1-.38.08-.7-.05-.95-.14-.26-.48-.39-1.03-.39-.38,0-.7.07-.95.21-.26.14-.46.29-.59.46-.14.17-.26.33-.36.46-.31.38-.56.64-.75.77-.19.14-.42.21-.7.21h-3.71c-.65,0-.89-.33-.72-.98.31-1.17.9-2.18,1.78-3.04s1.93-1.54,3.17-2.04c1.24-.5,2.52-.75,3.86-.75,2.27,0,3.96.52,5.07,1.55,1.12,1.03,1.48,2.44,1.11,4.22-.21,1-.64,1.92-1.31,2.76-.67.84-1.55,1.65-2.63,2.42-1.08.77-2.38,1.61-3.89,2.5h5.82c.34,0,.59.1.75.31.16.21.2.48.13.82l-.51,2.58c-.17.76-.64,1.13-1.39,1.13h-13.8Z"/><path class="d" d="M48.84,126.54c-.17,0-.29-.06-.38-.17-.09-.12-.12-.26-.09-.42l2.93-13.71h-4.59c-.18,0-.32-.06-.41-.17-.09-.12-.12-.26-.09-.42l.4-1.83c.03-.18.12-.33.26-.45.14-.12.29-.17.46-.17h12.65c.18,0,.32.06.41.17.09.12.12.26.09.45l-.4,1.83c-.03.17-.12.31-.25.42-.13.12-.29.17-.47.17h-4.59l-2.93,13.71c-.03.17-.12.31-.25.42-.13.12-.29.17-.47.17h-2.28Z"/><path class="d" d="M68.23,126.54c-.17,0-.29-.06-.38-.17-.09-.12-.12-.26-.09-.42l2.48-11.7c.03-.17.12-.31.26-.42.14-.12.29-.17.46-.17h2.06c.18,0,.31.06.4.17.08.12.11.26.07.42l-2.48,11.7c-.03.17-.12.31-.25.42-.13.12-.29.17-.47.17h-2.06ZM71.31,111.51c-.17,0-.29-.06-.38-.17s-.12-.26-.09-.42l.4-1.79c.03-.17.12-.31.25-.42.13-.12.29-.17.47-.17h2.26c.17,0,.3.06.4.17.1.12.13.26.1.42l-.4,1.79c-.03.17-.12.31-.26.42s-.29.17-.46.17h-2.28Z"/><path class="d" d="M82.71,131.25c-.17,0-.29-.06-.38-.17-.09-.12-.12-.26-.09-.42l3.5-16.42c.03-.17.12-.31.25-.42.13-.12.28-.17.45-.17h1.98c.17,0,.29.06.38.17.09.12.12.26.09.42l-.22.99c.51-.53,1.08-.97,1.7-1.31.62-.35,1.43-.52,2.44-.52.86,0,1.59.14,2.19.43.6.29,1.08.7,1.43,1.23.35.53.57,1.15.68,1.87.11.72.09,1.51-.06,2.37-.03.28-.08.54-.14.79-.06.25-.13.52-.21.82-.2.81-.48,1.57-.84,2.29-.36.72-.81,1.35-1.33,1.88-.52.54-1.13.95-1.83,1.25-.7.3-1.49.45-2.37.45-.93,0-1.69-.16-2.28-.48-.59-.32-1.02-.75-1.29-1.28l-1.21,5.63c-.03.17-.12.31-.25.42-.13.12-.29.17-.47.17h-2.11ZM89.78,124.13c.66,0,1.22-.15,1.69-.46.46-.31.85-.71,1.15-1.21.31-.5.55-1.04.73-1.62.08-.25.15-.5.2-.74.05-.25.09-.5.12-.74.08-.59.09-1.14.03-1.64-.07-.5-.25-.9-.56-1.2-.31-.31-.79-.46-1.45-.46-.69,0-1.29.16-1.8.47s-.92.71-1.24,1.2c-.32.49-.55.99-.68,1.5-.08.3-.16.61-.22.94-.07.33-.12.65-.17.97-.08.5-.08.97.01,1.43.09.45.31.83.67,1.13s.86.45,1.53.45Z"/><path class="d" d="M112.99,126.79c-1.26,0-2.3-.23-3.14-.69-.83-.46-1.43-1.12-1.79-1.96-.36-.84-.44-1.83-.26-2.95.05-.3.12-.66.21-1.09.09-.43.18-.79.26-1.09.3-1.14.76-2.13,1.38-2.96.62-.83,1.41-1.48,2.38-1.95.97-.46,2.11-.69,3.43-.69s2.3.23,3.14.69c.83.46,1.43,1.11,1.8,1.95.36.83.45,1.82.27,2.96-.07.3-.14.66-.22,1.09-.08.43-.17.79-.25,1.09-.3,1.12-.75,2.11-1.35,2.95s-1.39,1.5-2.36,1.96c-.97.46-2.14.69-3.51.69ZM113.24,124.33c.89,0,1.65-.28,2.27-.83s1.07-1.37,1.35-2.44c.07-.25.14-.57.22-.97s.15-.72.2-.97c.18-1.07.11-1.89-.22-2.44-.33-.55-.94-.83-1.83-.83s-1.63.28-2.26.83-1.07,1.37-1.34,2.44c-.07.25-.14.57-.24.97s-.15.72-.19.97c-.18,1.08-.11,1.89.21,2.44.32.55.93.83,1.82.83Z"/><path class="d" d="M151.28,126.79c-1.26,0-2.3-.23-3.14-.69-.83-.46-1.43-1.12-1.79-1.96-.36-.84-.44-1.83-.26-2.95.05-.3.12-.66.21-1.09.09-.43.18-.79.26-1.09.3-1.14.76-2.13,1.38-2.96.62-.83,1.41-1.48,2.38-1.95.97-.46,2.11-.69,3.43-.69s2.3.23,3.14.69c.83.46,1.43,1.11,1.8,1.95.36.83.45,1.82.27,2.96-.07.3-.14.66-.22,1.09-.08.43-.17.79-.25,1.09-.3,1.12-.75,2.11-1.35,2.95s-1.39,1.5-2.36,1.96c-.97.46-2.14.69-3.51.69ZM151.52,124.33c.89,0,1.65-.28,2.27-.83s1.07-1.37,1.35-2.44c.07-.25.14-.57.22-.97s.15-.72.2-.97c.18-1.07.11-1.89-.22-2.44-.33-.55-.94-.83-1.83-.83s-1.63.28-2.26.83-1.07,1.37-1.34,2.44c-.07.25-.14.57-.24.97s-.15.72-.19.97c-.18,1.08-.11,1.89.21,2.44.32.55.93.83,1.82.83Z"/><path class="d" d="M174.04,126.79c-1.08,0-1.95-.23-2.63-.68-.68-.46-1.13-1.1-1.35-1.93-.22-.83-.22-1.82.01-2.96l1.49-6.97c.03-.17.12-.31.26-.42.14-.12.29-.17.46-.17h2.18c.17,0,.29.06.37.17.08.12.11.26.08.42l-1.44,6.82c-.15.68-.19,1.24-.14,1.7s.24.8.56,1.03c.31.23.8.35,1.46.35.89,0,1.67-.27,2.33-.82.66-.54,1.09-1.3,1.29-2.26l1.46-6.82c.03-.17.12-.31.26-.42.14-.12.29-.17.46-.17h2.16c.18,0,.31.06.4.17.08.12.11.26.07.42l-2.48,11.7c-.03.17-.12.31-.25.42-.13.12-.29.17-.47.17h-2.01c-.17,0-.29-.06-.38-.17-.09-.12-.12-.26-.09-.42l.2-1.02c-.36.38-.74.71-1.12.99-.38.28-.82.5-1.31.64-.5.15-1.11.22-1.83.22Z"/><path class="d" d="M215.42,126.79c-1.52,0-2.76-.26-3.72-.79-.96-.53-1.62-1.29-2-2.29s-.43-2.19-.19-3.58c.13-.71.29-1.48.46-2.29.17-.82.35-1.59.53-2.32.33-1.37.9-2.55,1.7-3.52.8-.97,1.8-1.73,2.99-2.26,1.19-.53,2.53-.79,4.02-.79,1.21,0,2.23.16,3.07.48.84.32,1.51.74,2.01,1.24s.83,1.05,1.02,1.62c.18.58.23,1.12.15,1.61-.02.15-.09.27-.21.37-.12.1-.27.15-.43.15h-2.55c-.15,0-.26-.03-.33-.1-.07-.07-.14-.17-.19-.3-.03-.35-.15-.69-.36-1.03-.21-.34-.53-.62-.97-.86-.44-.23-1.04-.35-1.8-.35-1.12,0-2.09.3-2.89.89-.8.6-1.37,1.58-1.7,2.95-.18.71-.35,1.43-.51,2.17-.16.74-.3,1.47-.43,2.19-.23,1.41-.07,2.41.48,3.02.55.61,1.39.92,2.52.92.74,0,1.44-.13,2.08-.4.65-.26,1.19-.68,1.65-1.24.45-.56.77-1.28.96-2.16l.17-.77h-3.05c-.17,0-.29-.06-.37-.17-.08-.12-.11-.26-.07-.45l.27-1.31c.03-.18.12-.33.26-.45.14-.12.29-.17.46-.17h5.93c.18,0,.31.06.4.17.08.12.11.26.07.45l-.55,2.6c-.28,1.39-.83,2.59-1.66,3.6-.83,1.01-1.86,1.79-3.09,2.33-1.23.55-2.61.82-4.13.82Z"/><path class="d" d="M239.23,126.79c-.86,0-1.59-.14-2.18-.43-.59-.29-1.06-.7-1.4-1.23s-.56-1.15-.66-1.87c-.1-.72-.08-1.51.05-2.37.07-.3.12-.57.17-.81.05-.24.11-.51.17-.81.21-.83.5-1.59.86-2.31s.79-1.33,1.31-1.87,1.13-.96,1.83-1.25c.7-.3,1.51-.45,2.42-.45,1.02,0,1.81.16,2.34.48s.96.71,1.25,1.18l.17-.82c.03-.17.12-.31.25-.42.13-.12.28-.17.45-.17h1.96c.17,0,.3.06.4.17.1.12.13.26.1.42l-2.5,11.7c-.03.17-.12.31-.25.42-.13.12-.28.17-.45.17h-1.96c-.18,0-.32-.06-.41-.17-.09-.12-.12-.26-.09-.42l.2-.92c-.5.51-1.04.93-1.64,1.26-.6.33-1.4.5-2.41.5ZM240.34,124.13c.69,0,1.29-.16,1.79-.47.5-.31.9-.71,1.2-1.2.31-.49.52-.99.66-1.5.08-.3.16-.62.22-.96.07-.34.12-.66.17-.95.1-.5.11-.97.03-1.43-.08-.46-.29-.83-.63-1.13-.34-.3-.85-.45-1.52-.45s-1.2.15-1.65.46c-.46.31-.83.71-1.13,1.2-.3.5-.54,1.04-.72,1.64-.07.25-.12.5-.17.74s-.09.5-.12.74c-.08.59-.1,1.14-.06,1.64s.21.9.52,1.2c.31.31.78.46,1.43.46Z"/><path class="d" d="M258.94,126.54c-.17,0-.29-.06-.38-.17-.09-.12-.12-.26-.09-.42l2.48-11.68c.03-.18.12-.33.26-.45.14-.12.29-.17.46-.17h2.01c.17,0,.29.06.38.17.09.12.12.26.09.45l-.22,1.02c.4-.53.9-.93,1.51-1.21.61-.28,1.35-.42,2.23-.42h1.21c.18,0,.31.06.4.17.08.12.11.26.07.42l-.37,1.79c-.03.17-.12.31-.26.42-.14.12-.29.17-.46.17h-1.93c-.79,0-1.46.22-2,.66-.54.44-.89,1.05-1.05,1.85l-1.46,6.82c-.03.17-.12.31-.25.42-.13.12-.29.17-.47.17h-2.16Z"/><path class="d" d="M282.45,126.79c-.86,0-1.6-.14-2.21-.43s-1.09-.7-1.44-1.23c-.35-.53-.57-1.15-.67-1.87-.1-.72-.08-1.51.05-2.37.05-.3.1-.57.15-.81.05-.24.12-.51.2-.81.21-.83.5-1.59.86-2.31s.8-1.33,1.33-1.87c.53-.54,1.14-.96,1.83-1.25.69-.3,1.48-.45,2.36-.45.94,0,1.71.15,2.29.46.59.31,1.03.7,1.33,1.18l1.19-5.5c.03-.17.12-.31.25-.42.13-.12.28-.17.45-.17h2.11c.18,0,.32.06.41.17.09.12.12.26.09.42l-3.5,16.42c-.03.17-.12.31-.25.42-.13.12-.29.17-.47.17h-1.96c-.17,0-.29-.06-.38-.17-.09-.12-.12-.26-.09-.42l.2-.92c-.51.51-1.08.93-1.7,1.26-.62.33-1.43.5-2.42.5ZM283.56,124.13c.68,0,1.27-.16,1.79-.47.51-.31.93-.71,1.24-1.2.31-.49.54-.99.67-1.5.08-.3.16-.62.24-.96.07-.34.14-.66.19-.95.1-.5.09-.97-.01-1.43s-.33-.83-.68-1.13c-.35-.3-.85-.45-1.51-.45s-1.23.15-1.7.46c-.47.31-.86.71-1.15,1.2-.3.5-.54,1.04-.72,1.64-.07.25-.13.5-.19.74s-.1.5-.14.74c-.08.59-.09,1.14-.04,1.64s.24.9.56,1.2c.31.31.8.46,1.46.46Z"/><path class="d" d="M307.47,126.79c-1.21,0-2.21-.24-3.01-.72-.8-.48-1.36-1.17-1.66-2.08s-.35-2.01-.14-3.3c.03-.17.07-.38.12-.63.05-.26.1-.46.15-.61.33-1.26.84-2.33,1.54-3.24.69-.9,1.54-1.59,2.54-2.08,1-.49,2.1-.73,3.31-.73,1.34,0,2.4.28,3.17.83.78.55,1.29,1.32,1.55,2.31.26.98.26,2.12.01,3.41l-.12.52c-.03.17-.12.31-.26.42-.14.12-.3.17-.48.17h-8.23c-.02.1-.03.17-.05.2-.08.58-.07,1.11.02,1.6.1.49.32.88.66,1.18.34.3.79.45,1.35.45.46,0,.87-.07,1.21-.21.35-.14.63-.3.86-.48.22-.18.39-.33.51-.45.2-.2.35-.32.45-.36.1-.04.24-.06.42-.06h2.16c.15,0,.26.05.35.15.08.1.11.22.07.37-.08.26-.29.59-.62.97-.33.38-.78.75-1.34,1.12s-1.23.67-2,.91-1.62.36-2.54.36ZM306.4,118.98h5.48l.03-.08c.17-.64.19-1.21.06-1.7-.12-.49-.36-.87-.72-1.14s-.82-.41-1.4-.41-1.1.14-1.56.41-.85.65-1.17,1.14c-.31.49-.55,1.05-.69,1.7l-.02.08Z"/><path class="d" d="M325.42,126.54c-.17,0-.29-.06-.38-.17-.09-.12-.12-.26-.09-.42l2.48-11.7c.03-.17.12-.31.26-.42.14-.12.29-.17.46-.17h2.03c.17,0,.29.06.37.17.08.12.11.26.07.42l-.22,1.02c.53-.53,1.15-.97,1.87-1.33.72-.35,1.53-.53,2.44-.53,1.12,0,2.02.23,2.7.68s1.13,1.09,1.35,1.92c.22.83.21,1.82-.04,2.98l-1.49,6.97c-.03.17-.12.31-.25.42-.13.12-.29.17-.47.17h-2.18c-.17,0-.29-.06-.38-.17-.09-.12-.12-.26-.09-.42l1.44-6.82c.21-1.01.19-1.77-.06-2.29-.26-.52-.86-.78-1.82-.78s-1.74.27-2.39.82c-.65.55-1.09,1.3-1.3,2.26l-1.44,6.82c-.03.17-.12.31-.25.42-.13.12-.28.17-.45.17h-2.18Z"/><path class="d" d="M102.35,17.61c-.21,0-.36-.08-.43-.25-.07-.17-.06-.33.04-.5L111.32.87c.1-.17.23-.31.38-.43s.36-.19.61-.19h2.88c.25,0,.43.06.54.19s.18.27.2.43l2.58,15.99c.03.23,0,.41-.11.55-.11.13-.25.2-.43.2h-2.11c-.21,0-.38-.05-.48-.16s-.18-.24-.21-.41l-.54-2.93h-7.37l-1.81,3.02c-.08.12-.19.22-.32.32-.13.1-.3.15-.5.15h-2.28ZM108.72,11.26h5.65l-1.19-7.66-4.46,7.66Z"/><path class="d" d="M119.98,22.32c-.17,0-.29-.06-.38-.17-.09-.12-.12-.26-.09-.42l3.5-16.42c.03-.17.12-.31.25-.42.13-.12.28-.17.45-.17h1.98c.17,0,.29.06.38.17.09.12.12.26.09.42l-.22.99c.51-.53,1.08-.97,1.7-1.31.62-.35,1.43-.52,2.44-.52.86,0,1.59.15,2.19.43.6.29,1.08.7,1.43,1.23.35.53.57,1.15.68,1.87.11.72.09,1.51-.06,2.37-.03.28-.08.55-.14.79-.06.25-.13.52-.21.82-.2.81-.48,1.57-.84,2.29-.36.72-.81,1.35-1.33,1.88-.52.54-1.13.96-1.83,1.25-.7.3-1.49.45-2.37.45-.93,0-1.69-.16-2.28-.48-.59-.32-1.02-.75-1.29-1.28l-1.21,5.63c-.03.17-.12.31-.25.42-.13.12-.29.17-.47.17h-2.11ZM127.04,15.2c.66,0,1.22-.15,1.69-.46s.85-.71,1.15-1.21.55-1.05.73-1.62c.08-.25.15-.5.2-.74.05-.25.09-.5.12-.74.08-.59.09-1.14.03-1.64-.07-.5-.25-.9-.56-1.2s-.79-.46-1.45-.46c-.69,0-1.29.16-1.8.47-.5.31-.92.71-1.24,1.2-.32.49-.55.99-.68,1.5-.08.3-.16.61-.22.94-.07.33-.12.65-.17.97-.08.5-.08.97.01,1.43.09.46.31.83.67,1.13.36.3.86.45,1.53.45Z"/><path class="d" d="M140.38,17.85c-.86,0-1.59-.15-2.18-.43-.59-.29-1.06-.7-1.4-1.23-.34-.53-.56-1.15-.66-1.87-.1-.72-.08-1.51.05-2.37.07-.3.12-.57.17-.81.05-.24.11-.51.17-.81.21-.83.5-1.59.86-2.31s.79-1.33,1.31-1.87,1.13-.96,1.83-1.25c.7-.3,1.51-.45,2.42-.45,1.02,0,1.81.16,2.34.48.54.32.96.72,1.25,1.18l.17-.82c.03-.17.12-.31.25-.42.13-.12.28-.17.45-.17h1.96c.17,0,.3.06.4.17.1.12.13.26.1.42l-2.5,11.7c-.03.17-.12.31-.25.42-.13.12-.28.17-.45.17h-1.96c-.18,0-.32-.06-.41-.17-.09-.12-.12-.26-.09-.42l.2-.92c-.5.51-1.04.93-1.64,1.26-.6.33-1.4.5-2.41.5ZM141.5,15.2c.69,0,1.29-.16,1.79-.47.5-.31.9-.71,1.2-1.2s.52-.99.66-1.5c.08-.3.16-.62.22-.96.07-.34.12-.66.17-.95.1-.5.11-.97.03-1.43-.08-.46-.29-.83-.63-1.13-.34-.3-.85-.45-1.52-.45s-1.2.15-1.65.46c-.46.31-.83.71-1.13,1.2-.3.5-.54,1.04-.72,1.64-.07.25-.12.5-.17.74s-.09.5-.12.74c-.08.59-.1,1.14-.06,1.64.04.5.21.9.52,1.2.31.31.78.46,1.43.46Z"/><path class="d" d="M151.17,17.61c-.17,0-.29-.06-.38-.17-.09-.12-.12-.26-.09-.42l2.48-11.68c.03-.18.12-.33.26-.45.14-.12.29-.17.46-.17h2.01c.17,0,.29.06.38.17.09.12.12.26.09.45l-.22,1.02c.4-.53.9-.93,1.51-1.21.61-.28,1.35-.42,2.23-.42h1.21c.18,0,.31.06.4.17.08.12.11.26.07.42l-.37,1.79c-.03.17-.12.31-.26.42-.14.12-.29.17-.46.17h-1.93c-.79,0-1.46.22-2,.66-.54.44-.89,1.05-1.05,1.85l-1.46,6.82c-.03.17-.12.31-.25.42-.13.12-.29.17-.47.17h-2.16Z"/><path class="d" d="M166.92,17.61c-1.12,0-2-.17-2.63-.52-.63-.35-1.03-.86-1.21-1.55-.18-.69-.17-1.54.05-2.57l1.21-5.63h-1.96c-.17,0-.29-.06-.38-.17-.09-.12-.12-.26-.09-.45l.3-1.41c.03-.17.12-.31.26-.42.14-.12.3-.17.48-.17h1.93l.89-4.12c.03-.17.12-.31.25-.42.13-.12.28-.17.45-.17h2.01c.18,0,.32.06.41.17.09.12.12.26.09.42l-.89,4.12h3.1c.17,0,.29.06.38.17.09.12.12.26.09.42l-.3,1.41c-.03.18-.12.33-.26.45-.14.12-.29.17-.46.17h-3.1l-1.14,5.38c-.1.45-.15.83-.16,1.15,0,.32.08.57.26.74.18.17.5.26.97.26h1.79c.18,0,.31.06.4.17.08.12.11.26.07.42l-.32,1.54c-.03.17-.12.31-.25.42-.13.12-.29.17-.47.17h-1.76Z"/><path class="d" d="M176.29,17.85c-.86,0-1.59-.15-2.18-.43-.59-.29-1.06-.7-1.4-1.23-.34-.53-.56-1.15-.66-1.87-.1-.72-.08-1.51.05-2.37.07-.3.12-.57.17-.81.05-.24.11-.51.17-.81.21-.83.5-1.59.86-2.31s.79-1.33,1.31-1.87,1.13-.96,1.83-1.25c.7-.3,1.51-.45,2.42-.45,1.02,0,1.81.16,2.34.48.54.32.96.72,1.25,1.18l.17-.82c.03-.17.12-.31.25-.42.13-.12.28-.17.45-.17h1.96c.17,0,.3.06.4.17.1.12.13.26.1.42l-2.5,11.7c-.03.17-.12.31-.25.42-.13.12-.28.17-.45.17h-1.96c-.18,0-.32-.06-.41-.17-.09-.12-.12-.26-.09-.42l.2-.92c-.5.51-1.04.93-1.64,1.26-.6.33-1.4.5-2.41.5ZM177.4,15.2c.69,0,1.29-.16,1.79-.47.5-.31.9-.71,1.2-1.2s.52-.99.66-1.5c.08-.3.16-.62.22-.96.07-.34.12-.66.17-.95.1-.5.11-.97.03-1.43-.08-.46-.29-.83-.63-1.13-.34-.3-.85-.45-1.52-.45s-1.2.15-1.65.46c-.46.31-.83.71-1.13,1.2-.3.5-.54,1.04-.72,1.64-.07.25-.12.5-.17.74s-.09.5-.12.74c-.08.59-.1,1.14-.06,1.64.04.5.21.9.52,1.2.31.31.78.46,1.43.46Z"/><path class="d" d="M187.07,17.61c-.17,0-.29-.06-.38-.17-.09-.12-.12-.26-.09-.42l2.48-11.7c.03-.17.12-.31.26-.42.14-.12.29-.17.46-.17h1.93c.17,0,.29.06.37.17.08.12.11.26.08.42l-.17.84c.31-.31.64-.6.98-.86.34-.26.73-.46,1.18-.61.45-.15.97-.22,1.56-.22.96,0,1.75.19,2.37.58.62.39,1.04.93,1.25,1.62.53-.66,1.14-1.19,1.83-1.6.69-.4,1.5-.61,2.43-.61s1.67.2,2.32.6c.65.4,1.11,1,1.38,1.8s.27,1.81.03,3.04l-1.54,7.12c-.03.17-.12.31-.25.42-.13.12-.28.17-.45.17h-2.03c-.17,0-.29-.06-.38-.17-.09-.12-.12-.26-.09-.42l1.46-6.92c.17-.74.2-1.33.1-1.77-.1-.44-.3-.75-.61-.93-.31-.18-.67-.27-1.1-.27-.38,0-.78.09-1.2.27-.42.18-.81.49-1.17.93-.36.44-.61,1.03-.76,1.77l-1.49,6.92c-.03.17-.12.31-.25.42-.13.12-.28.17-.45.17h-2.03c-.17,0-.3-.06-.4-.17-.1-.12-.13-.26-.1-.42l1.49-6.92c.15-.74.17-1.33.06-1.77-.11-.44-.31-.75-.61-.93-.3-.18-.66-.27-1.09-.27-.36,0-.76.1-1.19.29-.43.19-.82.5-1.18.93-.36.43-.61,1.02-.76,1.76l-1.49,6.92c-.03.17-.12.31-.25.42-.13.12-.28.17-.45.17h-2.08Z"/><path class="d" d="M214.7,17.85c-1.21,0-2.21-.24-3.01-.72-.8-.48-1.36-1.17-1.66-2.08-.31-.91-.35-2.01-.14-3.3.03-.17.07-.38.12-.63.05-.26.1-.46.15-.61.33-1.26.84-2.33,1.54-3.24.69-.9,1.54-1.59,2.54-2.08,1-.49,2.1-.73,3.31-.73,1.34,0,2.4.28,3.17.83.78.55,1.29,1.32,1.55,2.31.26.98.26,2.12.01,3.41l-.12.52c-.03.17-.12.31-.26.42-.14.12-.3.17-.48.17h-8.23c-.02.1-.03.17-.05.2-.08.58-.07,1.11.02,1.6.1.49.32.88.66,1.18.34.3.79.45,1.35.45.46,0,.87-.07,1.21-.21.35-.14.63-.3.86-.48.22-.18.39-.33.51-.45.2-.2.35-.32.45-.36.1-.04.24-.06.42-.06h2.16c.15,0,.26.05.35.15.08.1.11.22.07.37-.08.26-.29.59-.62.97-.33.38-.78.75-1.34,1.12s-1.23.67-2,.9c-.77.24-1.62.36-2.54.36ZM213.63,10.04h5.48l.03-.07c.17-.64.19-1.21.06-1.7s-.36-.87-.72-1.14-.82-.41-1.4-.41-1.1.14-1.56.41-.85.65-1.17,1.14c-.31.49-.55,1.05-.69,1.7l-.02.07Z"/><path class="d" d="M223.72,17.61c-.17,0-.29-.06-.38-.17-.09-.12-.12-.26-.09-.42l2.48-11.7c.03-.17.12-.31.26-.42.14-.12.29-.17.46-.17h2.03c.17,0,.29.06.37.17.08.12.11.26.07.42l-.22,1.02c.53-.53,1.15-.97,1.87-1.33.72-.36,1.53-.53,2.44-.53,1.12,0,2.02.23,2.7.68.68.45,1.13,1.09,1.35,1.92.22.83.21,1.82-.04,2.98l-1.49,6.97c-.03.17-.12.31-.25.42-.13.12-.29.17-.47.17h-2.18c-.17,0-.29-.06-.38-.17-.09-.12-.12-.26-.09-.42l1.44-6.82c.21-1.01.19-1.77-.06-2.29-.26-.52-.86-.78-1.82-.78s-1.74.27-2.39.82-1.09,1.3-1.3,2.26l-1.44,6.82c-.03.17-.12.31-.25.42-.13.12-.28.17-.45.17h-2.18Z"/><path class="d" d="M244.38,17.61c-1.12,0-2-.17-2.63-.52-.63-.35-1.03-.86-1.21-1.55-.18-.69-.17-1.54.05-2.57l1.21-5.63h-1.96c-.17,0-.29-.06-.38-.17-.09-.12-.12-.26-.09-.45l.3-1.41c.03-.17.12-.31.26-.42.14-.12.3-.17.48-.17h1.93l.89-4.12c.03-.17.12-.31.25-.42.13-.12.28-.17.45-.17h2.01c.18,0,.32.06.41.17.09.12.12.26.09.42l-.89,4.12h3.1c.17,0,.29.06.38.17.09.12.12.26.09.42l-.3,1.41c-.03.18-.12.33-.26.45-.14.12-.29.17-.46.17h-3.1l-1.14,5.38c-.1.45-.15.83-.16,1.15,0,.32.08.57.26.74.18.17.5.26.97.26h1.79c.18,0,.31.06.4.17.08.12.11.26.07.42l-.32,1.54c-.03.17-.12.31-.25.42-.13.12-.29.17-.47.17h-1.76Z"/><path class="d" d="M254.69,17.85c-1.26,0-2.3-.23-3.14-.69-.83-.46-1.43-1.12-1.79-1.96-.36-.84-.44-1.83-.26-2.95.05-.3.12-.66.21-1.09s.18-.79.26-1.09c.3-1.14.76-2.13,1.38-2.96.62-.83,1.41-1.48,2.38-1.95.97-.46,2.11-.69,3.43-.69s2.3.23,3.14.69c.83.46,1.43,1.11,1.8,1.95.36.83.45,1.82.27,2.96-.07.3-.14.66-.22,1.09-.08.43-.17.79-.25,1.09-.3,1.12-.75,2.11-1.35,2.95-.6.84-1.39,1.5-2.36,1.96-.97.46-2.14.69-3.51.69ZM254.94,15.4c.89,0,1.65-.28,2.27-.83.62-.55,1.07-1.37,1.35-2.44.07-.25.14-.57.22-.97s.15-.72.2-.97c.18-1.07.11-1.89-.22-2.44-.33-.55-.94-.83-1.83-.83s-1.63.28-2.26.83-1.07,1.37-1.34,2.44c-.07.25-.14.57-.24.97s-.15.72-.19.97c-.18,1.08-.11,1.89.21,2.44.32.55.93.83,1.82.83Z"/><path class="d" d="M268.73,17.85c-.99,0-1.81-.12-2.47-.35-.65-.23-1.17-.52-1.54-.87-.37-.35-.63-.69-.77-1.04-.14-.35-.19-.64-.16-.87.03-.18.12-.33.26-.43.14-.11.29-.16.43-.16h1.96c.07,0,.12,0,.17.02.05.02.1.07.15.15l.57.57c.2.2.45.37.76.51.31.14.71.21,1.2.21.64,0,1.21-.13,1.7-.38.49-.26.78-.62.88-1.1.07-.35.02-.63-.12-.84-.15-.21-.46-.41-.92-.58-.46-.17-1.15-.36-2.06-.56-.89-.21-1.61-.49-2.15-.82-.54-.33-.9-.74-1.09-1.24s-.21-1.07-.06-1.74c.13-.64.45-1.26.97-1.85.51-.59,1.19-1.07,2.05-1.45.85-.38,1.85-.57,2.99-.57.89,0,1.65.11,2.27.33.62.22,1.12.5,1.49.83s.63.67.78,1,.2.63.15.88c-.02.18-.09.33-.24.43s-.29.16-.43.16h-1.81c-.08,0-.16-.02-.22-.05-.07-.03-.12-.07-.15-.12-.17-.17-.33-.34-.51-.53-.17-.19-.4-.35-.67-.48-.27-.13-.66-.2-1.15-.2-.63,0-1.14.14-1.53.41s-.63.62-.73,1.03c-.05.28-.02.52.09.73s.38.4.83.58c.45.18,1.12.37,2.03.57,1.07.2,1.9.49,2.47.88s.94.83,1.12,1.34c.17.5.19,1.06.06,1.67-.15.74-.51,1.41-1.08,2.01-.57.59-1.32,1.06-2.24,1.4-.93.34-2.02.51-3.27.51Z"/><path class="e" d="M356.44,134.5H27.86c-5.72,0-10.38-4.66-10.38-10.38v-12.97c0-5.72,4.66-10.38,10.38-10.38h328.58c5.72,0,10.38,4.66,10.38,10.38v12.97c0,5.72-4.66,10.38-10.38,10.38ZM27.86,101.78c-5.17,0-9.38,4.21-9.38,9.38v12.97c0,5.17,4.21,9.38,9.38,9.38h328.58c5.17,0,9.38-4.21,9.38-9.38v-12.97c0-5.17-4.21-9.38-9.38-9.38H27.86Z"/></g></svg>