<?xml version="1.0" encoding="UTF-8"?><svg id="b" xmlns="http://www.w3.org/2000/svg" viewBox="0 0 341.52 133.25"><defs><style>.d{fill:#fff;}.e{fill:#f5833e;}</style></defs><g id="c"><path class="e" d="M79.54,50.3c-.45,0-.8-.15-1.07-.46-.26-.3-.36-.68-.27-1.13l8.48-39.51c.08-.45.3-.82.67-1.13.37-.31.77-.46,1.22-.46h15.55c2.6,0,5.05.37,7.35,1.1,2.3.73,4.28,1.8,5.95,3.2,1.67,1.4,2.88,3.14,3.63,5.21s.88,4.47.4,7.2c-.29,1.75-.57,3.29-.85,4.63-.29,1.34-.65,2.87-1.1,4.57-.98,3.82-2.36,6.97-4.15,9.45-1.79,2.48-4.12,4.32-6.98,5.52s-6.43,1.8-10.7,1.8h-18.11ZM93.2,39.93h5.18c1.34,0,2.53-.22,3.57-.67,1.04-.45,1.91-1.15,2.62-2.1.71-.95,1.25-2.18,1.62-3.69.33-1.18.59-2.24.79-3.17.2-.93.4-1.87.58-2.8.18-.94.38-1.97.58-3.11.37-2.24.07-3.86-.88-4.88-.96-1.02-2.45-1.52-4.48-1.52h-4.88l-4.7,21.95Z"/><path class="e" d="M137.89,50.91c-3.37,0-6.22-.53-8.54-1.58s-3.99-2.61-5.03-4.67c-1.04-2.05-1.35-4.52-.95-7.41.12-.85.28-1.79.49-2.8.2-1.02.45-1.95.73-2.81.81-2.93,2.03-5.41,3.66-7.44,1.62-2.03,3.73-3.58,6.31-4.63,2.58-1.06,5.66-1.58,9.24-1.58,3.25,0,6.04.53,8.35,1.58,2.32,1.06,4.04,2.6,5.18,4.63,1.14,2.03,1.48,4.51,1.04,7.44-.16.85-.35,1.79-.55,2.81-.2,1.02-.43,1.95-.67,2.8-.77,2.89-1.95,5.36-3.54,7.41-1.59,2.05-3.66,3.61-6.22,4.67-2.56,1.06-5.73,1.58-9.51,1.58ZM139.11,42.31c1.5,0,2.64-.45,3.42-1.34.77-.89,1.4-2.24,1.89-4.02.16-.61.36-1.44.58-2.5.22-1.06.4-1.89.52-2.5.24-1.75.19-3.08-.15-3.99-.35-.92-1.27-1.37-2.77-1.37s-2.59.46-3.38,1.37c-.79.91-1.41,2.25-1.86,3.99-.16.61-.37,1.44-.61,2.5-.24,1.06-.41,1.89-.49,2.5-.24,1.79-.2,3.13.12,4.02s1.24,1.34,2.74,1.34Z"/><path class="e" d="M161.37,50.3c-.45,0-.79-.15-1.04-.46-.24-.3-.33-.68-.24-1.13l6.04-28.54c.08-.45.31-.82.7-1.13.39-.3.8-.46,1.25-.46h8.84c.45,0,.78.15,1.01.46s.29.68.21,1.13l-.43,2.26c1.02-1.14,2.23-2.06,3.63-2.77,1.4-.71,3.22-1.07,5.46-1.07h3.78c.45,0,.79.15,1.04.46s.33.68.24,1.13l-1.71,7.87c-.08.45-.32.82-.7,1.13-.39.3-.78.46-1.19.46h-6.89c-1.46,0-2.64.39-3.54,1.16-.9.77-1.5,1.89-1.83,3.35l-3.17,14.57c-.08.45-.31.82-.67,1.13-.37.31-.77.46-1.22.46h-9.57Z"/><path class="e" d="M191.06,50.3c-.45,0-.79-.15-1.04-.46-.24-.3-.33-.68-.24-1.13l6.04-28.54c.08-.45.31-.82.7-1.13.39-.3.8-.46,1.25-.46h8.35c.45,0,.78.15,1.01.46.22.3.29.68.21,1.13l-.43,2.01c.65-.65,1.39-1.3,2.23-1.95.83-.65,1.83-1.19,2.99-1.62,1.16-.43,2.53-.64,4.12-.64,2.4,0,4.31.47,5.73,1.4,1.42.94,2.42,2.17,2.99,3.72,1.26-1.46,2.69-2.68,4.3-3.66,1.61-.98,3.49-1.46,5.64-1.46,2.28,0,4.2.48,5.76,1.43,1.56.96,2.67,2.42,3.32,4.39s.63,4.54-.06,7.71l-3.66,17.2c-.08.45-.3.82-.67,1.13-.37.31-.77.46-1.22.46h-8.9c-.45,0-.79-.15-1.04-.46-.24-.3-.33-.68-.24-1.13l3.6-16.83c.2-1.06.23-1.9.09-2.53-.14-.63-.44-1.1-.88-1.4-.45-.3-1.04-.46-1.77-.46-.61,0-1.22.15-1.83.46-.61.3-1.15.77-1.62,1.4-.47.63-.8,1.47-1.01,2.53l-3.6,16.83c-.08.45-.3.82-.67,1.13-.37.31-.77.46-1.22.46h-8.9c-.45,0-.79-.15-1.04-.46-.24-.3-.33-.68-.24-1.13l3.6-16.83c.2-1.06.22-1.9.06-2.53-.16-.63-.47-1.1-.91-1.4-.45-.3-1-.46-1.65-.46s-1.29.16-1.92.49c-.63.33-1.18.79-1.65,1.4-.47.61-.8,1.44-1.01,2.5l-3.6,16.83c-.08.45-.3.82-.67,1.13-.37.31-.77.46-1.22.46h-9.08Z"/><path class="e" d="M260.63,50.91c-2.76,0-5.06-.29-6.89-.88-1.83-.59-3.26-1.33-4.3-2.23-1.04-.89-1.75-1.82-2.13-2.77-.39-.96-.52-1.8-.4-2.53.08-.45.3-.82.67-1.13.37-.3.73-.46,1.1-.46h8.78c.08,0,.15.01.21.03.06.02.13.07.21.15.49.16.93.43,1.34.79.41.37.87.69,1.4.98.53.29,1.18.43,1.95.43.73,0,1.4-.15,2.01-.46.61-.3.98-.74,1.1-1.31.12-.49.07-.92-.15-1.28-.22-.37-.8-.72-1.74-1.07-.94-.35-2.42-.72-4.45-1.13-1.91-.41-3.6-1.01-5.06-1.8-1.46-.79-2.54-1.86-3.23-3.2-.69-1.34-.81-2.99-.37-4.94.33-1.67,1.2-3.27,2.62-4.82,1.42-1.54,3.33-2.81,5.73-3.81,2.4-1,5.18-1.49,8.35-1.49,2.4,0,4.46.29,6.19.85,1.73.57,3.14,1.28,4.24,2.13,1.1.85,1.88,1.77,2.35,2.74.47.98.62,1.85.46,2.62-.04.45-.22.82-.55,1.13-.33.3-.67.46-1.04.46h-8.05c-.12,0-.24,0-.37-.03-.12-.02-.22-.07-.3-.15-.53-.12-.99-.36-1.37-.7-.39-.34-.82-.67-1.31-.98-.49-.3-1.14-.46-1.95-.46-.69,0-1.28.16-1.77.49-.49.33-.79.75-.92,1.28-.12.45-.07.85.15,1.22.22.37.8.71,1.74,1.04.93.33,2.46.67,4.57,1.04,2.76.45,4.89,1.19,6.37,2.23,1.48,1.04,2.45,2.25,2.9,3.63s.53,2.76.24,4.15c-.45,2.07-1.45,3.88-3.02,5.43-1.56,1.55-3.65,2.73-6.25,3.57s-5.63,1.25-9.08,1.25Z"/><path class="e" d="M2.05,71.14c-.73,0-1.28-.25-1.65-.75-.37-.5-.48-1.11-.35-1.85l1.8-8.68c.13-.46.43-1.23.9-2.29.46-1.06,1.4-2.03,2.79-2.89l6.88-5.49c7.05-4.59,12.94-8.45,17.66-11.57,4.72-3.13,8.36-5.85,10.92-8.18,2.56-2.33,4.04-4.49,4.44-6.49.33-1.6.23-2.98-.3-4.14-.53-1.16-1.93-1.75-4.19-1.75-1.66,0-3.08.37-4.24,1.1-1.17.73-2.1,1.63-2.79,2.69-.7,1.06-1.28,2.06-1.75,2.99-.53.93-1.16,1.55-1.9,1.85-.73.3-1.5.45-2.29.45h-15.67c-.6,0-1.05-.2-1.35-.6-.3-.4-.42-.9-.35-1.5.8-3.53,2.23-6.74,4.29-9.63,2.06-2.89,4.59-5.44,7.58-7.63,2.99-2.2,6.37-3.87,10.13-5.04,3.76-1.16,7.73-1.75,11.92-1.75,5.85,0,10.69.9,14.52,2.69,3.82,1.8,6.52,4.32,8.08,7.58,1.56,3.26,1.85,7.15.85,11.67-.67,3.46-2.13,6.67-4.39,9.63-2.26,2.96-5.16,5.8-8.68,8.53-3.53,2.73-7.55,5.52-12.07,8.38l-5.99,4.79h23.35c.73,0,1.3.27,1.7.8.4.53.53,1.17.4,1.9l-2.69,12.57c-.13.73-.52,1.35-1.15,1.85-.63.5-1.31.75-2.04.75H2.05Z"/><path class="d" d="M6.83,99.94c-1.28,0-2.44-.25-3.5-.73-1.05-.49-1.84-1.21-2.37-2.16s-.69-2.1-.49-3.45c.06-.29.13-.67.22-1.11.09-.44.18-.82.25-1.14.54-2.03,1.55-3.61,3.04-4.72,1.49-1.11,3.33-1.66,5.53-1.66,1.31,0,2.42.19,3.33.58.91.39,1.62.87,2.15,1.44.53.57.9,1.15,1.11,1.73.21.58.29,1.07.24,1.46-.02.2-.12.38-.29.51s-.36.21-.54.21h-4.49c-.2,0-.36-.05-.46-.14-.1-.09-.17-.23-.21-.42-.06-.41-.18-.71-.38-.92-.19-.2-.5-.3-.93-.3-.59,0-1.07.2-1.43.6-.36.4-.64.98-.85,1.76-.09.39-.18.75-.25,1.08-.07.33-.13.63-.17.89-.13.8-.11,1.38.07,1.76s.55.57,1.12.57c.46,0,.83-.1,1.11-.29s.54-.49.78-.9c.11-.18.24-.33.38-.43s.31-.15.51-.15h4.49c.2,0,.37.07.49.22.12.15.15.32.1.53-.11.33-.34.78-.69,1.35-.35.56-.86,1.14-1.51,1.73-.66.59-1.51,1.09-2.55,1.5-1.04.41-2.32.61-3.81.61Z"/><path class="d" d="M23.89,99.94c-1.54,0-2.83-.24-3.88-.72-1.05-.48-1.82-1.19-2.29-2.12s-.62-2.06-.43-3.37c.06-.39.13-.81.22-1.28.09-.46.2-.89.33-1.28.37-1.33.92-2.46,1.67-3.38.74-.92,1.7-1.63,2.87-2.11,1.17-.48,2.58-.72,4.2-.72,1.48,0,2.75.24,3.8.72,1.05.48,1.84,1.18,2.36,2.11.52.93.67,2.05.47,3.38-.07.39-.16.81-.25,1.28-.09.46-.19.89-.31,1.28-.35,1.31-.89,2.44-1.61,3.37-.72.93-1.67,1.64-2.83,2.12s-2.61.72-4.33.72ZM24.44,96.03c.68,0,1.2-.2,1.55-.61.35-.41.64-1.02.86-1.83.07-.28.16-.66.26-1.14.1-.48.18-.86.24-1.14.11-.79.09-1.4-.07-1.82-.16-.42-.58-.62-1.26-.62s-1.18.21-1.54.62c-.36.42-.64,1.02-.85,1.82-.07.28-.17.66-.28,1.14-.11.48-.18.86-.22,1.14-.11.81-.09,1.42.06,1.83.15.41.56.61,1.25.61Z"/><path class="d" d="M34.57,99.66c-.2,0-.36-.07-.47-.21-.11-.14-.15-.31-.11-.51l2.75-12.98c.04-.2.14-.38.32-.51s.37-.21.57-.21h3.8c.2,0,.36.07.46.21.1.14.13.31.1.51l-.19.92c.3-.3.63-.59,1.01-.89s.83-.54,1.36-.74,1.15-.29,1.87-.29c1.09,0,1.96.21,2.61.64.65.43,1.1.99,1.36,1.69.57-.67,1.23-1.22,1.96-1.66.73-.44,1.59-.67,2.57-.67,1.04,0,1.91.22,2.62.65.71.44,1.22,1.1,1.51,2,.3.9.29,2.07-.03,3.51l-1.67,7.82c-.04.2-.14.37-.3.51-.17.14-.35.21-.55.21h-4.05c-.2,0-.36-.07-.47-.21-.11-.14-.15-.31-.11-.51l1.64-7.66c.09-.48.11-.86.04-1.15-.07-.29-.2-.5-.4-.64-.2-.14-.47-.21-.8-.21-.28,0-.55.07-.83.21s-.52.35-.74.64c-.21.29-.37.67-.46,1.15l-1.64,7.66c-.04.2-.14.37-.3.51-.17.14-.35.21-.55.21h-4.05c-.2,0-.36-.07-.47-.21-.11-.14-.15-.31-.11-.51l1.64-7.66c.09-.48.1-.86.03-1.15s-.21-.5-.42-.64c-.2-.14-.45-.21-.75-.21s-.59.07-.87.22c-.29.15-.54.36-.75.64s-.37.66-.46,1.14l-1.64,7.66c-.04.2-.14.37-.31.51-.17.14-.35.21-.55.21h-4.13Z"/><path class="d" d="M83.93,99.66c-.77,0-1.33-.2-1.68-.61-.35-.41-.54-.83-.58-1.28l-3.72-39.09c-.04-.57.1-1,.43-1.28.33-.28.71-.43,1.16-.43h9.15c.73,0,1.25.2,1.56.61.3.41.48.81.52,1.22l1.83,25.43,12.62-25.43c.16-.41.49-.81.98-1.22.49-.41,1.1-.61,1.83-.61h10.06c.49,0,.8.19.95.58.14.39.11.8-.09,1.25l-20.18,38.96c-.29.45-.67.87-1.16,1.28-.49.41-1.12.61-1.89.61h-11.77Z"/><path class="d" d="M126.98,100.27c-1.87,0-3.55-.29-5.03-.85-1.48-.57-2.7-1.44-3.66-2.62-.96-1.18-1.6-2.66-1.92-4.45-.33-1.79-.29-3.88.12-6.28.16-.89.31-1.67.46-2.32.14-.65.31-1.4.52-2.26.57-2.28,1.34-4.3,2.32-6.07.98-1.77,2.13-3.24,3.48-4.42,1.34-1.18,2.85-2.08,4.54-2.71,1.69-.63,3.53-.94,5.52-.94,2.4,0,4.24.31,5.52.94,1.28.63,2.29,1.43,3.02,2.41l.31-1.16c.08-.45.3-.82.67-1.13.37-.3.75-.46,1.16-.46h8.6c.45,0,.79.15,1.04.46s.33.68.24,1.13l-6.04,28.54c-.08.45-.3.82-.67,1.13-.37.3-.77.46-1.22.46h-8.6c-.45,0-.8-.15-1.07-.46s-.36-.68-.27-1.13l.37-1.71c-1.22,1.18-2.54,2.12-3.96,2.83s-3.23,1.07-5.43,1.07ZM132.47,90.76c1.06,0,1.94-.22,2.65-.67.71-.45,1.29-1.04,1.74-1.77.45-.73.79-1.54,1.04-2.44.24-.89.44-1.68.58-2.35.14-.67.27-1.41.4-2.23.16-.85.16-1.61,0-2.26-.16-.65-.51-1.18-1.04-1.59-.53-.41-1.28-.61-2.26-.61s-1.87.21-2.56.64c-.69.43-1.25,1.02-1.68,1.77-.43.75-.78,1.62-1.07,2.59-.16.61-.33,1.26-.49,1.95-.16.69-.29,1.34-.37,1.95-.12.98-.14,1.84-.06,2.59.08.75.37,1.34.85,1.77.49.43,1.24.64,2.26.64Z"/><path class="d" d="M155.46,99.66c-.45,0-.79-.15-1.04-.46-.24-.3-.33-.68-.24-1.13l6.04-28.54c.08-.45.31-.82.7-1.13.39-.3.8-.46,1.25-.46h8.84c.45,0,.78.15,1.01.46s.29.68.21,1.13l-.43,2.26c1.02-1.14,2.23-2.06,3.63-2.77s3.22-1.07,5.46-1.07h3.78c.45,0,.79.15,1.04.46s.33.68.24,1.13l-1.71,7.87c-.08.45-.32.82-.7,1.13-.39.3-.78.46-1.19.46h-6.89c-1.46,0-2.64.39-3.54,1.16-.9.77-1.5,1.89-1.83,3.35l-3.17,14.57c-.08.45-.31.82-.67,1.13-.37.3-.77.46-1.22.46h-9.57Z"/><path class="d" d="M195.88,100.27c-1.87,0-3.55-.29-5.03-.85-1.48-.57-2.7-1.44-3.66-2.62-.96-1.18-1.6-2.66-1.92-4.45-.33-1.79-.29-3.88.12-6.28.16-.89.31-1.67.46-2.32.14-.65.31-1.4.52-2.26.57-2.28,1.34-4.3,2.32-6.07.98-1.77,2.13-3.24,3.48-4.42,1.34-1.18,2.85-2.08,4.54-2.71,1.69-.63,3.53-.94,5.52-.94,2.4,0,4.24.31,5.52.94,1.28.63,2.29,1.43,3.02,2.41l.31-1.16c.08-.45.3-.82.67-1.13.37-.3.75-.46,1.16-.46h8.6c.45,0,.79.15,1.04.46s.33.68.24,1.13l-6.04,28.54c-.08.45-.3.82-.67,1.13-.37.3-.77.46-1.22.46h-8.6c-.45,0-.8-.15-1.07-.46s-.36-.68-.27-1.13l.37-1.71c-1.22,1.18-2.54,2.12-3.96,2.83s-3.23,1.07-5.43,1.07ZM201.37,90.76c1.06,0,1.94-.22,2.65-.67.71-.45,1.29-1.04,1.74-1.77.45-.73.79-1.54,1.04-2.44.24-.89.44-1.68.58-2.35.14-.67.27-1.41.4-2.23.16-.85.16-1.61,0-2.26-.16-.65-.51-1.18-1.04-1.59-.53-.41-1.28-.61-2.26-.61s-1.87.21-2.56.64c-.69.43-1.25,1.02-1.68,1.77-.43.75-.78,1.62-1.07,2.59-.16.61-.33,1.26-.49,1.95-.16.69-.29,1.34-.37,1.95-.12.98-.14,1.84-.06,2.59.08.75.37,1.34.85,1.77.49.43,1.24.64,2.26.64Z"/><path class="d" d="M224.36,99.66c-.45,0-.79-.15-1.04-.46-.24-.3-.33-.68-.24-1.13l6.04-28.54c.08-.45.31-.82.7-1.13.39-.3.8-.46,1.25-.46h8.84c.45,0,.78.15,1.01.46s.29.68.21,1.13l-.43,2.2c1.3-1.22,2.82-2.26,4.57-3.11,1.75-.85,3.72-1.28,5.91-1.28,2.44,0,4.48.51,6.13,1.52,1.65,1.02,2.81,2.54,3.48,4.57.67,2.03.68,4.59.03,7.68l-3.66,16.95c-.08.45-.3.82-.67,1.13-.37.3-.77.46-1.22.46h-9.63c-.45,0-.79-.15-1.04-.46s-.33-.68-.24-1.13l3.48-16.52c.33-1.54.25-2.71-.21-3.51-.47-.79-1.41-1.19-2.84-1.19s-2.55.41-3.51,1.22c-.96.81-1.6,1.97-1.92,3.48l-3.54,16.52c-.08.45-.31.82-.67,1.13-.37.3-.77.46-1.22.46h-9.57Z"/><path class="d" d="M275.21,100.27c-1.83,0-3.5-.29-5-.85-1.5-.57-2.72-1.44-3.66-2.62-.94-1.18-1.58-2.66-1.92-4.45-.35-1.79-.32-3.88.09-6.28.16-.89.31-1.67.46-2.32.14-.65.31-1.4.52-2.26.57-2.28,1.33-4.3,2.29-6.07.96-1.77,2.1-3.24,3.45-4.42,1.34-1.18,2.83-2.08,4.45-2.71,1.63-.63,3.37-.94,5.24-.94s3.55.29,5.03.88c1.48.59,2.61,1.37,3.38,2.35l2.62-12.62c.08-.45.31-.82.67-1.13.37-.3.77-.46,1.22-.46h9.39c.41,0,.74.15,1.01.46.26.3.36.68.27,1.13l-8.54,40.12c-.08.45-.32.82-.7,1.13-.39.3-.78.46-1.19.46h-8.66c-.41,0-.74-.15-1.01-.46-.26-.3-.36-.68-.27-1.13l.37-1.71c-1.22,1.18-2.55,2.12-3.99,2.83-1.44.71-3.28,1.07-5.52,1.07ZM280.76,90.76c1.06,0,1.94-.22,2.65-.67.71-.45,1.3-1.04,1.77-1.77.47-.73.82-1.54,1.07-2.44.24-.89.43-1.68.55-2.35s.24-1.41.37-2.23c.16-.85.16-1.61,0-2.26s-.51-1.18-1.04-1.59c-.53-.41-1.28-.61-2.26-.61s-1.88.21-2.59.64c-.71.43-1.28,1.02-1.71,1.77-.43.75-.78,1.62-1.07,2.59-.16.61-.33,1.26-.49,1.95-.16.69-.29,1.34-.37,1.95-.12.98-.14,1.84-.06,2.59.08.75.38,1.34.88,1.77.51.43,1.27.64,2.29.64Z"/><path class="d" d="M314.6,100.27c-1.87,0-3.55-.29-5.03-.85-1.48-.57-2.7-1.44-3.66-2.62-.96-1.18-1.6-2.66-1.92-4.45-.33-1.79-.29-3.88.12-6.28.16-.89.31-1.67.46-2.32.14-.65.31-1.4.52-2.26.57-2.28,1.34-4.3,2.32-6.07.98-1.77,2.13-3.24,3.48-4.42,1.34-1.18,2.85-2.08,4.54-2.71,1.69-.63,3.53-.94,5.52-.94,2.4,0,4.24.31,5.52.94,1.28.63,2.29,1.43,3.02,2.41l.31-1.16c.08-.45.3-.82.67-1.13.37-.3.75-.46,1.16-.46h8.6c.45,0,.79.15,1.04.46s.33.68.24,1.13l-6.04,28.54c-.08.45-.3.82-.67,1.13-.37.3-.77.46-1.22.46h-8.6c-.45,0-.8-.15-1.07-.46s-.36-.68-.27-1.13l.37-1.71c-1.22,1.18-2.54,2.12-3.96,2.83s-3.23,1.07-5.43,1.07ZM320.09,90.76c1.06,0,1.94-.22,2.65-.67.71-.45,1.29-1.04,1.74-1.77.45-.73.79-1.54,1.04-2.44.24-.89.44-1.68.58-2.35.14-.67.27-1.41.4-2.23.16-.85.16-1.61,0-2.26-.16-.65-.51-1.18-1.04-1.59-.53-.41-1.28-.61-2.26-.61s-1.87.21-2.56.64c-.69.43-1.25,1.02-1.68,1.77-.43.75-.78,1.62-1.07,2.59-.16.61-.33,1.26-.49,1.95-.16.69-.29,1.34-.37,1.95-.12.98-.14,1.84-.06,2.59.08.75.37,1.34.85,1.77.49.43,1.24.64,2.26.64Z"/><path class="e" d="M6.8,133.03c-.15,0-.27-.05-.38-.16-.11-.11-.16-.24-.16-.38v-10.4l-2.99,2.29c-.13.1-.27.14-.4.11-.14-.03-.26-.11-.36-.24l-1.29-1.68c-.09-.13-.12-.27-.1-.43.02-.15.11-.27.25-.36l5.03-3.89c.09-.06.17-.1.25-.12.08-.02.17-.03.27-.03h2.73c.16,0,.29.05.39.15.1.1.15.23.15.39v14.2c0,.15-.05.27-.15.38-.1.11-.23.16-.39.16h-2.84Z"/><path class="e" d="M28.4,133.25c-1.34,0-2.5-.22-3.5-.66-.99-.44-1.76-1.1-2.32-1.98s-.86-1.98-.92-3.31c-.01-.63-.02-1.26-.02-1.89s0-1.26.02-1.89c.06-1.31.37-2.41.93-3.31.56-.9,1.34-1.57,2.34-2.02,1-.45,2.15-.68,3.46-.68s2.48.23,3.47.68,1.77,1.12,2.34,2.02c.57.9.87,2,.92,3.31.03.63.04,1.26.04,1.89s-.01,1.26-.04,1.89c-.04,1.33-.35,2.43-.91,3.31s-1.34,1.54-2.33,1.98c-.99.44-2.16.66-3.5.66ZM28.4,130.11c.77,0,1.4-.23,1.89-.7.49-.47.75-1.21.78-2.23.03-.64.04-1.25.04-1.81s-.01-1.16-.04-1.77c-.03-.68-.16-1.24-.38-1.67s-.54-.75-.93-.95c-.39-.2-.84-.31-1.35-.31s-.94.1-1.33.31c-.39.2-.71.52-.94.95-.23.43-.36.99-.39,1.67-.01.61-.02,1.2-.02,1.77s0,1.17.02,1.81c.04,1.02.31,1.76.8,2.23.49.47,1.11.7,1.87.7Z"/><path class="e" d="M46.32,133.25c-1.33,0-2.48-.22-3.46-.64-.98-.43-1.74-1.09-2.28-1.99-.54-.9-.81-2.04-.81-3.42v-8.91c0-.16.05-.29.15-.39.1-.1.23-.15.39-.15h2.82c.16,0,.29.05.4.15.11.1.16.23.16.39v8.89c0,.95.23,1.66.68,2.13.45.47,1.09.71,1.92.71s1.45-.24,1.91-.71c.46-.47.69-1.18.69-2.13v-8.89c0-.16.05-.29.16-.39.11-.1.24-.15.38-.15h2.84c.15,0,.27.05.38.15.11.1.16.23.16.39v8.91c0,1.38-.27,2.52-.81,3.42s-1.3,1.56-2.27,1.99c-.98.43-2.12.64-3.43.64Z"/><path class="e" d="M64.69,133.03c-.16,0-.29-.05-.4-.16s-.16-.24-.16-.38v-1.55c0-.1.03-.26.09-.47.06-.21.21-.41.46-.6l2.27-2.23c1.17-.89,2.12-1.64,2.87-2.26s1.31-1.17,1.67-1.65c.36-.48.55-.93.55-1.35,0-.5-.13-.91-.38-1.23-.25-.33-.7-.49-1.32-.49-.42,0-.77.09-1.05.27-.28.18-.49.42-.64.71-.15.29-.26.59-.32.9-.06.19-.16.32-.29.39-.14.07-.29.11-.45.11h-2.73c-.13,0-.24-.04-.33-.13s-.13-.2-.13-.33c.01-.7.16-1.36.45-1.98.28-.62.68-1.16,1.2-1.63.52-.47,1.14-.83,1.86-1.1.72-.27,1.53-.4,2.44-.4,1.24,0,2.29.2,3.16.6.87.4,1.53.95,1.98,1.66.45.71.68,1.53.68,2.48,0,.71-.16,1.38-.47,2-.31.62-.76,1.21-1.33,1.77s-1.26,1.14-2.04,1.74l-2.01,2.03h5.62c.16,0,.29.05.4.15.11.1.16.23.16.39v2.21c0,.15-.05.27-.16.38-.11.11-.24.16-.4.16h-11.21Z"/><path class="e" d="M91.8,133.03c-.25,0-.44-.07-.59-.2-.15-.13-.25-.28-.31-.46l-4.46-13.98c-.03-.07-.04-.14-.04-.2,0-.12.05-.22.14-.32s.21-.14.34-.14h2.71c.23,0,.42.07.55.2s.21.25.24.37l3.1,10.09,3.08-10.09c.04-.12.13-.24.25-.37.12-.13.3-.2.54-.2h2.73c.12,0,.22.05.32.14.09.09.14.2.14.32,0,.06-.01.12-.04.2l-4.46,13.98c-.04.17-.14.33-.28.46-.15.13-.35.2-.61.2h-3.34Z"/><path class="e" d="M102.68,133.03c-.12,0-.22-.05-.32-.14s-.14-.2-.14-.32c0-.07,0-.14.02-.2l5.13-14.03c.04-.16.13-.3.27-.43.14-.12.33-.19.58-.19h3.23c.25,0,.44.06.58.19s.23.27.27.43l5.11,14.03c.03.06.04.12.04.2,0,.12-.05.22-.14.32s-.21.14-.34.14h-2.69c-.22,0-.38-.05-.49-.16-.11-.11-.18-.21-.21-.29l-.85-2.23h-5.83l-.83,2.23c-.03.09-.09.19-.2.29-.1.11-.28.16-.52.16h-2.69ZM107.82,127.2h4.06l-2.03-5.77-2.03,5.77Z"/><path class="e" d="M127.37,133.25c-1.38,0-2.57-.23-3.57-.69-1-.46-1.77-1.13-2.32-2.01-.55-.88-.85-1.96-.91-3.22-.01-.63-.02-1.29-.02-2s0-1.38.02-2.02c.06-1.24.36-2.29.92-3.15s1.33-1.51,2.34-1.97,2.18-.68,3.54-.68c1.09,0,2.06.13,2.91.4s1.55.63,2.13,1.08c.58.45,1.02.95,1.32,1.49.31.54.47,1.07.48,1.59,0,.13-.05.24-.14.33-.09.09-.21.13-.34.13h-3.19c-.16,0-.28-.03-.36-.08-.08-.05-.15-.13-.21-.23-.1-.22-.25-.45-.45-.69s-.47-.45-.81-.62c-.34-.17-.79-.26-1.34-.26-.82,0-1.46.22-1.94.66-.48.44-.74,1.14-.79,2.1-.04,1.25-.04,2.52,0,3.8.04,1.02.31,1.76.81,2.21s1.16.68,1.99.68c.54,0,1.02-.09,1.45-.28.43-.19.77-.48,1.02-.88.25-.4.37-.91.37-1.54v-.42h-2.05c-.16,0-.29-.05-.39-.16s-.15-.24-.15-.4v-1.62c0-.16.05-.29.15-.4s.23-.16.39-.16h5.51c.16,0,.29.05.39.16s.15.24.15.4v2.49c0,1.25-.28,2.32-.85,3.21-.57.89-1.37,1.57-2.41,2.04-1.04.47-2.25.71-3.64.71Z"/><path class="e" d="M137.77,133.03c-.12,0-.22-.05-.32-.14s-.14-.2-.14-.32c0-.07,0-.14.02-.2l5.13-14.03c.04-.16.13-.3.27-.43.14-.12.33-.19.58-.19h3.23c.25,0,.44.06.58.19s.23.27.27.43l5.11,14.03c.03.06.04.12.04.2,0,.12-.05.22-.14.32s-.21.14-.34.14h-2.69c-.22,0-.38-.05-.49-.16-.11-.11-.18-.21-.21-.29l-.85-2.23h-5.83l-.83,2.23c-.03.09-.09.19-.2.29-.1.11-.28.16-.52.16h-2.69ZM142.9,127.2h4.06l-2.03-5.77-2.03,5.77Z"/><path class="e" d="M161.93,133.25c-1.46,0-2.67-.21-3.63-.62-.96-.42-1.69-.96-2.18-1.63-.5-.67-.76-1.38-.79-2.14,0-.12.05-.22.14-.32s.21-.14.34-.14h2.75c.2,0,.36.04.47.11.11.07.21.17.29.28.12.22.28.43.49.63s.49.37.84.49c.35.12.77.19,1.27.19.84,0,1.48-.13,1.91-.39.43-.26.64-.62.64-1.07,0-.33-.12-.6-.35-.81-.23-.2-.61-.39-1.13-.56-.52-.17-1.21-.34-2.06-.51-1.11-.23-2.05-.54-2.83-.91s-1.37-.86-1.78-1.46c-.41-.6-.61-1.36-.61-2.26s.25-1.68.75-2.38c.5-.7,1.21-1.25,2.11-1.64s1.97-.59,3.21-.59c1,0,1.89.13,2.65.39.76.26,1.41.61,1.93,1.05.52.44.92.9,1.19,1.39.27.49.41.96.43,1.43,0,.12-.04.22-.12.32s-.19.14-.34.14h-2.88c-.16,0-.3-.03-.42-.09-.12-.06-.22-.15-.31-.28-.09-.32-.32-.6-.69-.84-.37-.24-.86-.36-1.45-.36-.64,0-1.14.11-1.5.34-.36.23-.54.57-.54,1.04,0,.29.1.55.29.76.2.22.52.41.98.57s1.09.33,1.89.5c1.33.25,2.4.56,3.21.93.82.37,1.42.85,1.8,1.44s.58,1.33.58,2.22c0,.99-.28,1.84-.85,2.56-.57.71-1.34,1.26-2.33,1.65s-2.12.58-3.42.58Z"/><path class="e" d="M180.28,133.03c-.16,0-.29-.05-.39-.16-.1-.11-.15-.24-.15-.38v-14.2c0-.16.05-.29.15-.39s.23-.15.39-.15h5.68c1.43,0,2.64.23,3.65.69,1,.46,1.78,1.13,2.32,2.01s.83,1.97.87,3.27c.01.64.02,1.2.02,1.68s0,1.03-.02,1.66c-.06,1.35-.35,2.48-.86,3.36-.52.89-1.27,1.55-2.25,1.98-.98.43-2.19.64-3.62.64h-5.79ZM183.67,129.89h2.29c.63,0,1.15-.1,1.56-.29.42-.2.73-.51.94-.93.21-.42.32-.98.34-1.66.03-.42.05-.8.05-1.14,0-.33,0-.67,0-1,0-.33-.03-.71-.05-1.11-.03-.99-.29-1.71-.78-2.17s-1.21-.69-2.17-.69h-2.18v9Z"/><path class="e" d="M198.11,133.03c-.16,0-.29-.05-.39-.16-.1-.11-.15-.24-.15-.38v-14.2c0-.16.05-.29.15-.39s.23-.15.39-.15h10.2c.16,0,.29.05.39.15.1.1.15.23.15.39v2.05c0,.16-.05.29-.15.39-.1.1-.23.15-.39.15h-6.97v2.95h6.49c.16,0,.29.05.39.16.1.11.15.24.15.4v1.9c0,.15-.05.27-.15.38-.1.11-.23.16-.39.16h-6.49v3.04h7.14c.16,0,.29.05.39.15.1.1.15.23.15.39v2.05c0,.15-.05.27-.15.38-.1.11-.23.16-.39.16h-10.38Z"/><path class="e" d="M226.86,133.25c-1.38,0-2.57-.23-3.57-.69-1-.46-1.77-1.13-2.32-2.01-.55-.88-.85-1.96-.91-3.22-.01-.63-.02-1.29-.02-2s0-1.38.02-2.02c.06-1.24.36-2.29.92-3.15s1.33-1.51,2.34-1.97,2.18-.68,3.54-.68c1.09,0,2.06.13,2.91.4s1.55.63,2.13,1.08c.58.45,1.02.95,1.32,1.49.31.54.47,1.07.48,1.59,0,.13-.05.24-.14.33-.09.09-.21.13-.34.13h-3.19c-.16,0-.28-.03-.36-.08-.08-.05-.15-.13-.21-.23-.1-.22-.25-.45-.45-.69s-.47-.45-.81-.62c-.34-.17-.79-.26-1.34-.26-.82,0-1.46.22-1.94.66-.48.44-.74,1.14-.79,2.1-.04,1.25-.04,2.52,0,3.8.04,1.02.31,1.76.81,2.21s1.16.68,1.99.68c.54,0,1.02-.09,1.45-.28.43-.19.77-.48,1.02-.88.25-.4.37-.91.37-1.54v-.42h-2.05c-.16,0-.29-.05-.39-.16s-.15-.24-.15-.4v-1.62c0-.16.05-.29.15-.4s.23-.16.39-.16h5.51c.16,0,.29.05.39.16s.15.24.15.4v2.49c0,1.25-.28,2.32-.85,3.21-.57.89-1.37,1.57-2.41,2.04-1.04.47-2.25.71-3.64.71Z"/><path class="e" d="M237.26,133.03c-.12,0-.22-.05-.32-.14s-.14-.2-.14-.32c0-.07,0-.14.02-.2l5.13-14.03c.04-.16.13-.3.27-.43.14-.12.33-.19.58-.19h3.23c.25,0,.44.06.58.19s.23.27.27.43l5.11,14.03c.03.06.04.12.04.2,0,.12-.05.22-.14.32s-.21.14-.34.14h-2.69c-.22,0-.38-.05-.49-.16-.11-.11-.18-.21-.21-.29l-.85-2.23h-5.83l-.83,2.23c-.03.09-.09.19-.2.29-.1.11-.28.16-.52.16h-2.69ZM242.4,127.2h4.06l-2.03-5.77-2.03,5.77Z"/><path class="e" d="M256.51,133.03c-.16,0-.29-.05-.39-.16-.1-.11-.15-.24-.15-.38v-14.2c0-.16.05-.29.15-.39s.23-.15.39-.15h5.94c1.89,0,3.38.43,4.46,1.3s1.62,2.09,1.62,3.68c0,1.03-.25,1.91-.74,2.62-.5.71-1.15,1.25-1.97,1.62l2.99,5.37c.04.09.07.17.07.24,0,.12-.05.22-.14.32s-.2.14-.32.14h-2.91c-.28,0-.48-.07-.61-.21-.13-.14-.23-.26-.28-.38l-2.49-4.81h-2.23v4.85c0,.15-.05.27-.16.38s-.24.16-.4.16h-2.82ZM259.9,124.53h2.51c.68,0,1.2-.17,1.54-.5.34-.33.51-.79.51-1.35s-.16-1.03-.49-1.38c-.33-.35-.85-.52-1.56-.52h-2.51v3.76Z"/><path class="e" d="M272.37,133.03c-.12,0-.22-.05-.32-.14s-.14-.2-.14-.32c0-.07,0-.14.02-.2l5.13-14.03c.04-.16.13-.3.27-.43.14-.12.33-.19.58-.19h3.23c.25,0,.44.06.58.19s.23.27.27.43l5.11,14.03c.03.06.04.12.04.2,0,.12-.05.22-.14.32s-.21.14-.34.14h-2.69c-.22,0-.38-.05-.49-.16-.11-.11-.18-.21-.21-.29l-.85-2.23h-5.83l-.83,2.23c-.03.09-.09.19-.2.29-.1.11-.28.16-.52.16h-2.69ZM277.5,127.2h4.06l-2.03-5.77-2.03,5.77Z"/><path class="e" d="M297.06,133.25c-1.38,0-2.57-.23-3.57-.69-1-.46-1.77-1.13-2.32-2.01-.55-.88-.85-1.96-.91-3.22-.01-.63-.02-1.29-.02-2s0-1.38.02-2.02c.06-1.24.36-2.29.92-3.15s1.33-1.51,2.34-1.97,2.18-.68,3.54-.68c1.09,0,2.06.13,2.91.4s1.55.63,2.13,1.08c.58.45,1.02.95,1.32,1.49.31.54.47,1.07.48,1.59,0,.13-.05.24-.14.33-.09.09-.21.13-.34.13h-3.19c-.16,0-.28-.03-.36-.08-.08-.05-.15-.13-.21-.23-.1-.22-.25-.45-.45-.69s-.47-.45-.81-.62c-.34-.17-.79-.26-1.34-.26-.82,0-1.46.22-1.94.66-.48.44-.74,1.14-.79,2.1-.04,1.25-.04,2.52,0,3.8.04,1.02.31,1.76.81,2.21s1.16.68,1.99.68c.54,0,1.02-.09,1.45-.28.43-.19.77-.48,1.02-.88.25-.4.37-.91.37-1.54v-.42h-2.05c-.16,0-.29-.05-.39-.16s-.15-.24-.15-.4v-1.62c0-.16.05-.29.15-.4s.23-.16.39-.16h5.51c.16,0,.29.05.39.16s.15.24.15.4v2.49c0,1.25-.28,2.32-.85,3.21-.57.89-1.37,1.57-2.41,2.04-1.04.47-2.25.71-3.64.71Z"/><path class="e" d="M309.2,133.03c-.16,0-.29-.05-.39-.16-.1-.11-.15-.24-.15-.38v-14.2c0-.16.05-.29.15-.39s.23-.15.39-.15h10.2c.16,0,.29.05.39.15.1.1.15.23.15.39v2.05c0,.16-.05.29-.15.39-.1.1-.23.15-.39.15h-6.97v2.95h6.49c.16,0,.29.05.39.16.1.11.15.24.15.4v1.9c0,.15-.05.27-.15.38-.1.11-.23.16-.39.16h-6.49v3.04h7.14c.16,0,.29.05.39.15.1.1.15.23.15.39v2.05c0,.15-.05.27-.15.38-.1.11-.23.16-.39.16h-10.38Z"/><path class="e" d="M325.35,133.03c-.15,0-.27-.05-.38-.16s-.16-.24-.16-.38v-14.2c0-.16.05-.29.16-.39.11-.1.24-.15.38-.15h2.36c.25,0,.43.06.55.19.12.12.19.22.22.29l3.85,6.88,3.84-6.88c.04-.07.12-.17.23-.29s.29-.19.54-.19h2.34c.16,0,.29.05.4.15.11.1.16.23.16.39v14.2c0,.15-.05.27-.16.38s-.24.16-.4.16h-2.6c-.16,0-.29-.05-.4-.16s-.16-.24-.16-.38v-8.19l-2.45,4.57c-.07.13-.17.25-.28.35-.12.1-.28.15-.48.15h-1.14c-.2,0-.36-.05-.48-.15-.12-.1-.21-.22-.28-.35l-2.47-4.57v8.19c0,.15-.05.27-.15.38-.1.11-.23.16-.39.16h-2.62Z"/></g></svg>