<svg width="24" height="24" viewBox="0 0 24 24" fill="none" xmlns="http://www.w3.org/2000/svg">
<g clip-path="url(#clip0_4209_676)">
<path fill-rule="evenodd" clip-rule="evenodd" d="M12.2791 1.46118C6.5455 1.46118 1.88086 6.08765 1.88086 11.7796C1.88086 14.0356 2.61665 16.1284 3.86264 17.8291L2.56459 21.6607L6.55938 20.3905C8.20103 21.4664 10.1689 22.0946 12.2791 22.0946C18.0127 22.0946 22.6774 17.4681 22.6774 11.7761C22.6774 6.08418 18.0127 1.46118 12.2791 1.46118Z" fill="url(#paint0_linear_4209_676)"/>
<path fill-rule="evenodd" clip-rule="evenodd" d="M24 11.6928C24 18.1484 18.7245 23.3857 12.2169 23.3857C10.1518 23.3857 8.20824 22.8581 6.52148 21.9315L0 24L2.12755 17.7284C1.0551 15.9653 0.43731 13.9002 0.43731 11.6928C0.43731 5.23384 5.7128 0 12.2204 0C18.728 0 24.0035 5.23384 24.0035 11.6928H24ZM12.2204 1.86377C6.75748 1.86377 2.31497 6.27158 2.31497 11.6928C2.31497 13.8412 3.01605 15.8334 4.20304 17.4577L2.96746 21.1089L6.77484 19.9011C8.34013 20.9284 10.2108 21.5254 12.2239 21.5254C17.6868 21.5254 22.1293 17.1176 22.1293 11.6963C22.1293 6.27505 17.6798 1.86377 12.2204 1.86377ZM18.1692 14.3861C18.0963 14.2681 17.902 14.1952 17.6174 14.0529C17.3293 13.9106 15.9063 13.2165 15.6425 13.1193C15.3787 13.0256 15.1844 12.977 14.9935 13.2616C14.7991 13.5497 14.2473 14.1952 14.0772 14.3861C13.9106 14.577 13.7406 14.6013 13.4525 14.459C13.1644 14.3167 12.2308 14.0113 11.1306 13.036C10.2733 12.2759 9.69371 11.3388 9.52364 11.0508C9.35705 10.7627 9.50629 10.61 9.64859 10.4677C9.78048 10.3393 9.93666 10.1345 10.0824 9.9679C10.2282 9.8013 10.2768 9.67983 10.3705 9.48894C10.4677 9.29805 10.4191 9.13145 10.3462 8.98915C10.2733 8.84685 9.69718 7.43427 9.45423 6.86161C9.21475 6.28894 8.97527 6.30976 8.80521 6.30976C8.63514 6.30976 8.32625 6.35835 8.32625 6.35835C8.32625 6.35835 7.74664 6.43124 7.48286 6.71584C7.21909 7.0039 6.47288 7.69458 6.47288 9.10369C6.47288 10.5128 7.50716 11.8768 7.65293 12.0677C7.7987 12.2586 9.65206 15.2469 12.5883 16.3957C15.5245 17.5445 15.5245 17.1592 16.0555 17.1106C16.5831 17.0655 17.7631 16.4165 18.0061 15.7501C18.2456 15.0803 18.2456 14.5076 18.1761 14.3896L18.1692 14.3861Z" fill="white"/>
</g>
<defs>
<linearGradient id="paint0_linear_4209_676" x1="12.2791" y1="21.5775" x2="12.2791" y2="-2.68632" gradientUnits="userSpaceOnUse">
<stop stop-color="#00A651"/>
<stop offset="1" stop-color="#12B25B"/>
</linearGradient>
<clipPath id="clip0_4209_676">
<rect width="24" height="24" fill="white"/>
</clipPath>
</defs>
</svg>
