<svg width="24" height="24" viewBox="0 0 24 24" fill="none" xmlns="http://www.w3.org/2000/svg">
<g clip-path="url(#clip0_4209_658)">
<path d="M11.4227 0.0192764C17.2197 -0.276549 22.5584 3.7982 23.7235 9.48568C25.901 20.0209 14.4979 27.76 5.47283 22.1012L1.6718 23.5994C-1.16465 23.5326 1.71955 19.9159 1.8437 18.4845C-2.98877 10.6499 2.17797 0.486871 11.4227 0.0192764ZM1.58585 22.4352L5.55879 20.8797C5.8644 20.8797 6.83853 21.605 7.21099 21.7863C17.7546 26.9203 27.897 13.8372 20.3045 4.96242C12.1676 -4.5517 -3.10337 5.03876 2.12066 16.5664C2.40717 17.1962 2.83694 17.7402 3.0566 18.3795C2.75099 19.7728 2.00606 21.061 1.58585 22.4352Z" fill="white"/>
<path d="M10.3245 10.6879C10.0762 10.4207 9.57959 10.5447 9.31219 10.4684C8.88242 10.3443 8.88242 9.58091 9.48409 9.48549C10.0858 9.39006 12.311 9.3996 12.9413 9.48549C13.5716 9.57137 13.9441 9.98171 13.9918 10.6115L12.8172 16.9193C13.0368 17.4823 13.5048 17.4632 14.0014 17.2915C14.3166 17.1769 14.5458 16.8143 14.88 17.0624C15.2143 17.3105 14.5458 17.9117 14.3261 18.074C13.0655 19.0091 9.8661 19.2763 9.62735 17.2056C9.43634 15.5833 10.3627 13.1594 10.4487 11.4513C10.4582 11.2414 10.4773 10.8501 10.3341 10.6974L10.3245 10.6879Z" fill="white"/>
<path d="M11.9672 5.30577C14.6604 4.84771 14.7368 8.54076 12.4829 8.65527C10.42 8.76024 10.0953 5.63022 11.9672 5.30577Z" fill="white"/>
</g>
<defs>
<clipPath id="clip0_4209_658">
<rect width="24" height="24" fill="white"/>
</clipPath>
</defs>
</svg>
