<svg width="24" height="24" viewBox="0 0 24 24" fill="none" xmlns="http://www.w3.org/2000/svg">
<g clip-path="url(#clip0_4209_668)">
<path d="M15.63 8.38V5.52H18.11H18.48V8.38H15.63ZM24 0V24H0V0H24ZM20.44 6.82C20.44 5.02 18.98 3.56 17.18 3.56H6.82C5.02 3.56 3.56 5.02 3.56 6.82V17.17C3.56 18.97 5.02 20.43 6.82 20.43H17.17C18.97 20.43 20.43 18.97 20.43 17.17V6.82H20.44ZM12 14.97C13.64 14.97 14.97 13.64 14.97 12C14.97 11.35 14.76 10.76 14.41 10.27C13.87 9.52 12.99 9.03 12 9.03C11.01 9.03 10.13 9.52 9.59 10.27C9.24 10.76 9.03 11.36 9.03 12C9.03 13.64 10.36 14.97 12 14.97ZM16.61 12C16.61 14.54 14.54 16.61 12 16.61C9.46 16.61 7.39 14.54 7.39 12C7.39 11.39 7.51 10.8 7.73 10.27H5.21V17.18C5.21 18.07 5.94 18.8 6.83 18.8H17.18C18.07 18.8 18.8 18.08 18.8 17.18V10.27H16.28C16.5 10.81 16.62 11.39 16.62 12H16.61Z" fill="white"/>
</g>
<defs>
<clipPath id="clip0_4209_668">
<rect width="24" height="24" fill="white"/>
</clipPath>
</defs>
</svg>
