<svg width="24" height="24" viewBox="0 0 24 24" fill="none" xmlns="http://www.w3.org/2000/svg">
<g clip-path="url(#clip0_4209_664)">
<path d="M12.66 4.93C8.82 4.93 5.69 8.06 5.69 11.9C5.69 13.17 6.04 14.42 6.71 15.51L6.89 15.81L6.19 18.41L8.8 17.71L9.09 17.89C10.17 18.53 11.4 18.88 12.65 18.88C16.49 18.88 19.62 15.75 19.62 11.91C19.62 8.07 16.49 4.94 12.65 4.94L12.66 4.93ZM16.75 14.53C16.49 15.16 15.85 15.56 15.19 15.69C14.57 15.81 14.05 15.61 13.47 15.42C12.95 15.25 12.46 15 12 14.72C11.08 14.15 10.28 13.4 9.64 12.52C9.44 12.25 9.26 11.98 9.1 11.69C8.88 11.31 8.68 10.91 8.58 10.49C8.54 10.31 8.51 10.13 8.51 9.95C8.51 9.3 8.75 8.65 9.26 8.23C9.56 7.99 9.99 7.88 10.33 8.07C10.69 8.27 10.88 8.79 11.05 9.15C11.18 9.43 11.33 9.8 11.28 10.12C11.23 10.44 10.97 10.7 10.78 10.94C10.64 11.1 10.62 11.23 10.74 11.41C11.4 12.51 12.32 13.31 13.52 13.79C13.68 13.86 13.81 13.84 13.92 13.7C14.13 13.44 14.33 12.94 14.65 12.81C15.07 12.64 15.53 12.88 15.88 13.09C16.21 13.29 16.76 13.53 16.85 13.94C16.89 14.14 16.85 14.34 16.78 14.53H16.75Z" fill="white"/>
<path d="M0 0V24H24V0H0ZM12.66 20.49C11.24 20.49 9.83 20.13 8.58 19.45L3.9 20.7L5.15 16.05C4.44 14.78 4.07 13.35 4.07 11.9C4.07 7.16 7.92 3.31 12.66 3.31C17.4 3.31 21.25 7.16 21.25 11.9C21.25 16.64 17.4 20.49 12.66 20.49Z" fill="white"/>
</g>
<defs>
<clipPath id="clip0_4209_664">
<rect width="24" height="24" fill="white"/>
</clipPath>
</defs>
</svg>
