<svg width="24" height="24" viewBox="0 0 24 24" fill="none" xmlns="http://www.w3.org/2000/svg">
<path d="M17.63 4.88C16.93 4.88 16.35 5.45 16.35 6.15C16.35 6.85 16.92 7.43 17.63 7.43C18.34 7.43 18.91 6.86 18.91 6.15C18.91 5.44 18.34 4.88 17.63 4.88Z" fill="#F5833E"/>
<path d="M11.96 6.52C9.01 6.52 6.6 8.92 6.6 11.88C6.6 14.84 9 17.24 11.96 17.24C14.92 17.24 17.32 14.84 17.32 11.88C17.32 8.92 14.92 6.52 11.96 6.52ZM11.96 15.31C10.07 15.31 8.53 13.77 8.53 11.88C8.53 9.99 10.07 8.45 11.96 8.45C13.85 8.45 15.39 9.99 15.39 11.88C15.39 13.77 13.85 15.31 11.96 15.31Z" fill="#F5833E"/>
<path d="M16.22 22.75H7.53C3.93 22.75 1 19.82 1 16.22V7.53C1 3.93 3.93 1 7.53 1H16.21C19.81 1 22.74 3.93 22.74 7.53V16.21C22.74 19.81 19.81 22.74 16.21 22.74L16.22 22.75ZM7.53 3.05C5.06 3.05 3.04 5.06 3.04 7.54V16.22C3.04 18.69 5.05 20.71 7.53 20.71H16.21C18.68 20.71 20.7 18.7 20.7 16.22V7.53C20.7 5.06 18.69 3.04 16.21 3.04H7.53V3.05Z" fill="#F5833E"/>
</svg>
