<svg width="24" height="24" viewBox="0 0 24 24" fill="none" xmlns="http://www.w3.org/2000/svg">
<path d="M1 22.8L2.56 16.97C1.67 15.37 1.21 13.58 1.21 11.77C1.21 5.83 6.04 1 11.98 1C17.92 1 22.75 5.83 22.75 11.77C22.75 17.71 17.92 22.54 11.98 22.54C10.2 22.54 8.44 22.09 6.86 21.24L1 22.81V22.8ZM7.15 19.05L7.52 19.27C8.88 20.08 10.42 20.5 11.98 20.5C16.8 20.5 20.71 16.58 20.71 11.77C20.71 6.96 16.8 3.04 11.98 3.04C7.16 3.04 3.25 6.95 3.25 11.77C3.25 13.36 3.69 14.93 4.53 16.3L4.76 16.67L3.89 19.93L7.16 19.05H7.15Z" fill="#F5833E"/>
<path fill-rule="evenodd" clip-rule="evenodd" d="M15.99 13.27C15.55 13 14.97 12.71 14.45 12.92C14.05 13.08 13.79 13.71 13.53 14.03C13.4 14.19 13.24 14.22 13.03 14.14C11.53 13.54 10.37 12.54 9.54 11.15C9.4 10.93 9.42 10.77 9.59 10.57C9.84 10.27 10.16 9.94 10.22 9.54C10.29 9.14 10.1 8.68 9.94 8.32C9.73 7.87 9.49 7.22 9.04 6.97C8.62 6.73 8.07 6.87 7.7 7.17C7.06 7.69 6.75 8.51 6.76 9.32C6.76 9.55 6.79 9.78 6.84 10C6.97 10.53 7.22 11.03 7.49 11.51C7.7 11.87 7.93 12.22 8.17 12.55C8.97 13.64 9.97 14.59 11.13 15.3C11.71 15.65 12.33 15.97 12.98 16.18C13.7 16.42 14.35 16.67 15.13 16.52C15.95 16.36 16.76 15.86 17.08 15.07C17.18 14.84 17.22 14.58 17.17 14.33C17.06 13.82 16.37 13.52 15.96 13.27H15.99Z" fill="#F5833E"/>
</svg>
